<?xml version='1.0' encoding='utf-8'?>
<svg xmlns="http://www.w3.org/2000/svg" version="1.1" id="Ebene_2" x="0px" y="0px" width="1114.24px" height="290.615px" viewBox="0 0 1114.24 290.615" enable-background="new 0 0 1114.24 290.615"> <g> <path fill="#333333" d="M121.364,244.34c0,0-32.144,0-43.833-37.016s-11.482-61.315-18.183-79.627 c-6.699-18.312-14.516-26.127-14.516-26.127s-11.351-7.167-19.38-15.198c-8.03-8.03-16.62-9.337-20.915-20.915 c-4.295-11.578-6.909-14.938,2.801-19.98c9.711-5.042,13.633-4.298,33.986-14.754C61.68,20.265,84.647,6.446,101.081,2.339 c16.434-4.109,23.529-1.681,34.36,20.354c0,0-1.867-1.867,31.932-1.867c33.798,0,52.1-2.055,52.1-2.055S230.115-1.022,245.802,4.58 s33.426,18.301,46.684,24.089c13.259,5.789,40.522,23.155,47.059,26.704c6.535,3.548,21.102,11.017,11.951,25.583 s-18.673,19.235-28.384,21.477s-18.485,13.071-25.956,18.487s-8.404,10.831-12.139,32.866 c-3.734,22.036-5.043,30.253-15.687,54.342c-10.644,24.087-16.807,37.533-51.912,37.533c0,0-12.323,23.156-31.932,23.156 c-19.607,0-32.118,3.548-44.257-6.723C129.092,251.822,121.364,247.314,121.364,244.34z"/> <path opacity="0.5" d="M121.831,142.107c-12.015-10.775-21.149,3.536-23.873-17.446c-1.799-13.864,6.288-23.997,11.577-35.898 c5.127-11.537,8.45-20.669,11.419-32.828c3.292-13.482,9.867-24.367,12.886-36.398C123.878,0.444,116.69-1.564,101.081,2.339 C84.647,6.446,61.68,20.265,41.325,30.723C20.972,41.179,17.05,40.435,7.339,45.477c-9.71,5.042-7.096,8.402-2.801,19.98 c4.295,11.577,12.885,12.885,20.915,20.915c8.029,8.03,19.38,15.198,19.38,15.198s7.816,7.815,14.516,26.127 c6.7,18.312,6.493,42.612,18.183,79.627c4.092,12.956,10.688,21.365,17.536,26.84c1.197-6.915,1.948-14.291,5.21-20.704 c3.195-6.278,6.518-6.747,7.784-13.502c1.532-8.175-4.989-14.603,1.817-21.72C122.715,177.967,130.639,150.007,121.831,142.107z"/> <path opacity="0.5" d="M351.495,80.955c9.15-14.565-5.416-22.034-11.951-25.583c-6.536-3.548-33.8-20.915-47.059-26.704 c-13.258-5.788-30.997-18.487-46.684-24.089c-12.138-4.334-21.25,6.53-24.755,11.67c6.138,3.892,13.816,5.544,19.663,9.392 c-8.638,12.356-23.423,28.285-23.078,44.085c0.311,14.17,24.494,24.161,33.616,39.484c-12.643-2.747-43.447,0.254-48.818,14.884 c-3.485,9.497,3.094,19.298,8.15,26.75c9.531,14.047,18.052,29,17.004,47.223c-1.008,17.501-8.339,40.362,2.284,46.89 c24.348-3.039,30.224-15.923,39.462-36.832c10.644-24.089,11.952-32.306,15.687-54.342c3.734-22.035,4.668-27.45,12.139-32.866 s16.245-16.246,25.956-18.487S342.345,95.521,351.495,80.955z"/> <path fill="#333333" d="M351.495,80.955c9.15-14.565-5.416-22.034-11.951-25.583c-6.536-3.548-33.8-20.915-47.059-26.704 c-13.258-5.788-30.997-18.487-46.684-24.089s-26.329,14.191-26.329,14.191s20.743-15.418,31.547-4.615 c10.804,10.805-3.149,39.616-5.401,53.571c-2.251,13.955,5.853,43.217,25.21,43.217c18.451,0,21.902,2.109,48.245-7.082 c1.328-0.617,2.673-1.116,4.038-1.431c1.842-0.664,3.567-1.147,5.191-1.483C336.216,98.198,343.982,92.915,351.495,80.955z"/> <path fill="#515151" d="M77.702,108.693c16.657-5.853,29.261-20.709,22.959-43.667C94.873,43.94,87.974,9.207,114.779,0.886 c-3.863-0.541-8.269,0.096-13.698,1.453C84.647,6.446,61.68,20.265,41.325,30.723C20.972,41.179,17.05,40.435,7.339,45.477 c-9.71,5.042-7.096,8.402-2.801,19.98c4.295,11.577,12.885,12.885,20.915,20.915c8.029,8.03,19.38,15.198,19.38,15.198 S61.046,114.546,77.702,108.693z"/> <path fill="#FFFFFF" d="M217.074,244.479c-0.318-1.877,2.863-3.693,3.108-5.408c0.148-1.036,2.029-3.815,3.053-7.791 c0.752-2.924,0.092-11.002-0.038-14.297c-0.595-15.267-1.71-30.502-10.293-43.081c-9.637-14.128-23.322-29.99-26.694-47.493 c-4.262-22.126,13.035-41.828,9.822-64.626c-1.479-0.287-3.192,0.97-4.512,1.59c-0.742-0.073-1.15-3.106-1.869-3.359 c-1.381,1.438-2.683,2.685-4.384,3.842c-0.302-2.965-2.278-7.191-1.83-10.735c0.085,0.07-5.346-3.535-6.461-4.164 c-0.425,3.269-2.838,6.385-3.458,8.73c-1.733-5.466-3.781-11.017-6.891-15.858c-4.452,17.239,0.318,38.161,1.955,55.577 c1.381,14.688,5.566,36.788-5.062,46.053c-3.729,3.251-14.183,3.19-17.996,6.188c-3.521,2.768-7.66,9.35-10.227,13.651 c-8.112,13.604-12.622,27.94-16.573,43.21c-2.903,11.218,1.578,20.204,1.077,31.295c0.903,1.707,1.105,3.194,1.026,4.746 c0.337,0.015,0.536,0.017,0.536,0.017c0,2.95,7.728,7.418,19.865,17.598c12.139,10.181,24.649,6.666,44.257,6.666 C203.199,266.828,214.965,248.1,217.074,244.479z"/> <path fill="#515151" d="M219.473,18.771c0,0,20.743-15.418,31.547-4.615c10.804,10.805-3.149,39.616-5.401,53.571 c-1.354,8.401,1.049,22.344,7.396,32.117c-6.377-20.518,3.298-44.884,7.064-69.538c1.345-8.796,0.81-15.053-0.428-19.478 c-4.683-2.443-9.352-4.643-13.85-6.25C230.115-1.022,219.473,18.771,219.473,18.771z"/> <path fill="#515151" d="M351.495,80.955c6.462-10.286,1.096-17.028-4.915-21.355c-9.62,3.678-6.95,15.309-12.879,28.577 c-7.146,15.997-35.73,21.795-36.078,21.865c5.344-1,11.884-2.842,21.45-6.18c1.328-0.617,2.673-1.116,4.038-1.431 c1.842-0.664,3.567-1.147,5.191-1.483C336.216,98.198,343.982,92.915,351.495,80.955z"/> <path opacity="0.18" fill="#AF800B" d="M138.074,111.097c4.27,6.551,11.206,9.454,18.805,8.119 c1.703-4.886,3.268-30.205,1.682-35.653c-4.494-15.438-18.947-5.615-28.218-17.352c-6.782,10.91-9.335,15.382-19.656,22.541 c-6.913,4.795-21.622,12.015-16.125,22.714c16.82-8.743,27.863-12.304,43.513,0.059"/> <path opacity="0.18" fill="#AF800B" d="M266.304,139.974c-3.844-4.896-6.981-10.176-9.475-15.668 c-12.309,8.787-17.809,27.337-37.19,23.177c2.26,8.784,0.425,19.805,5.604,26.855l-0.429,0.428 c2.098,2.799,9.597,5.658,10.348,7.124c6.287,12.272-12.28,26.975-4.212,40.349c10.371,17.191,18.22-12.101,30.954-15.041 c2.969-4.176,10.337-12.93,16.513-22.399c3.003-9.626,4.369-17.856,6.6-31.014c0.007-0.036,0.012-0.071,0.018-0.107 C280.145,148.971,269.894,144.548,266.304,139.974z"/> <path opacity="0.18" fill="#AF800B" d="M195.76,117.506c-25.673-40.989,44.606-47.162,49.083-11.581 c-23.858-11.019-31.215,16.01-50.793,11.581"/> <path opacity="0.18" fill="#AF800B" d="M136.612,22.107c-1.822,9.569-6.942,19.373-11.386,26.187 c9.063,1.536,26.153-11.278,34.562-15.995c6.441-3.613,13.387-2.779,12.988-11.492c-1.758,0.012-3.553,0.019-5.403,0.019 C146.183,20.826,139.014,21.56,136.612,22.107z"/> <path opacity="0.18" fill="#AF800B" d="M220.255,17.456c-0.513,0.815-0.782,1.315-0.782,1.315s-10.713,1.201-30.863,1.766 c1.512,1.149,3.306,2.367,5.497,4.129c2.442,1.965,7.52-0.582,10.132,1.533c2.198,1.778,1.716,5.875,3.399,7.32 c5.183,4.452,4.953,10.805,15.14,12.596C225.44,37.541,224.401,26.341,220.255,17.456z"/> <path d="M157.596,209.491C157.596,209.49,157.595,209.49,157.596,209.491c1.894-0.152,4.945-0.713,4.79-2.789 c-0.226-2.999-3.179-7.949,2.177-8.349c5.355-0.403,9.612,4.665,6.045,8.811c-2.601,3.019-8.791,3.477-12.147,3.517 c0.104,0.297,0.177,0.634,0.208,1.04c0.417,5.568,5.11,7.803,11.417,8.624c6.312,0.821,6.196,7.938,6.196,7.938 c0.877-11.27,16.538-6.411,18.614-13.242c0.564-1.864,1.496-3.127,2.555-4.259c-4.445,0.396-10.207,0.081-11.685-3.863 c-2.489-6.643,1.869-9.248,5.915-8.411c3.638,0.752,0.299,9.485,8.147,9.89c2.198-2.297,4.251-5.339,4.398-12.583 c0.272-13.593-19.805-17.045-27.518-16.467c-7.714,0.577-28.933-0.85-27.664,16.073 C150.054,208.898,155.29,207.719,157.596,209.491z"/> <path d="M204.893,242.982c-2.013,1.332-3.943,0.956-5.308-0.241c-0.585,0.175-1.202,0.369-1.766,0.597 c0.079-0.035-0.387-0.295-0.586-0.253c-0.416,0.288-0.987,0.724-1.35,0.994c-2.127-0.72-3.759-1.669-5.344-2.134 c-0.01-0.002-0.019-0.005-0.025-0.008c-1.77-0.512-3.48-0.418-5.765,1.31c-4.3-2.493-8.782-4.308-10.482-8.544 c-0.291,0.754-0.62,1.498-1.024,2.275c-0.463-0.093-0.532-0.277-1.069-0.36c-0.779,1.318-1.931,2.7-3.02,3.043 c-0.036,0.015,0.102,0.508,0.022,0.597c0.086,0.019-0.955-0.65-0.857-0.579c-0.381,0.849-1.441,1.335-2.028,1.942 c-1.695-1.188-3.766-1.575-4.843,0.174c-0.258,0.092-0.521-0.566-0.886-0.378c-0.609,0.587-1.422,1.002-2.359,1.292l0,0 c-0.32,0.098-0.656,0.183-1,0.25c-0.021,0.006-0.049,0.008-0.069,0.012c-0.329,0.063-0.667,0.121-1.013,0.164 c-0.023,0.003-0.047,0.006-0.071,0.007c-0.351,0.044-0.71,0.077-1.079,0.102c-0.017,0.003-0.029,0.003-0.046,0.003 c-0.373,0.025-0.756,0.04-1.141,0.049c-3.396,0.07-7.149-0.412-9.71-0.405c-3.544,0.01-8.938,1.33-11.467-0.775 c7.843,6.711,17.646,13.185,30.859,13.12c12.032-0.059,26.64-1.861,37.698-5.79c4.024-1.432,8.964-4.099,9.763-7.535 C209.1,243.426,206.694,244.601,204.893,242.982z"/> <path d="M96.855,117.378c0,0,7.896-10.43,20.113-10.43c12.218,0,15.049,19.07,15.049,19.07S104.007,138.236,96.855,117.378z"/> <path fill="#664C21" d="M128.35,118.054c0-0.018-0.003-0.034-0.004-0.053c-1.965-4.223-5.507-8.859-11.606-8.859 c-7.585,0-13.344,3.918-16.274,6.448c-0.24,0.793-0.379,1.615-0.379,2.464c0,1.752,0.552,3.402,1.51,4.867 c5.362,5.472,14.143,5.254,20.628,4.084C125.922,125.045,128.35,121.77,128.35,118.054z"/> <ellipse cx="117.257" cy="116.922" rx="6.791" ry="6.014"/> <ellipse opacity="0.3" fill="#FFFFFF" cx="113.793" cy="114.508" rx="3.464" ry="3.115"/> <path d="M247.364,118.731c0,0-7.588-9.272-19.328-9.272c-11.742,0-14.463,16.954-14.463,16.954S240.491,137.274,247.364,118.731z"/> <path fill="#664C21" d="M217.099,119.112c0-0.017,0.002-0.032,0.002-0.048c1.889-3.851,5.295-8.079,11.156-8.079 c7.288,0,12.823,3.573,15.639,5.88c0.231,0.723,0.365,1.473,0.365,2.247c0,1.598-0.531,3.102-1.451,4.438 c-5.153,4.989-13.592,4.792-19.823,3.725C219.43,125.487,217.099,122.5,217.099,119.112z"/> <ellipse cx="227.677" cy="117.772" rx="6.526" ry="5.484"/> <ellipse opacity="0.3" fill="#FFFFFF" cx="231.007" cy="115.571" rx="3.328" ry="2.841"/> <path opacity="0.18" fill="#AF800B" d="M117.779,214.513c0.089-2.117,0.365-4.287,0.945-6.55 c3.951-15.404,8.461-29.869,16.573-43.592c2.566-4.34,6.706-10.98,10.227-13.773c3.071-2.434,10.444-2.87,15.146-4.66 c1.359-4.31-0.993-7.743-10.178-9.741c-15.312-3.332-46.966,7.169-57.712-10.997l-0.428,2.135 c-6.085-8.449-14.762,5.356-19.291,11.052c-4.385-1.435-7.741-0.637-10.292,1.48c3.692,16.724,5.481,38.075,14.761,67.458 c5.563,17.619,15.76,26.842,24.92,31.679c1.818-6.708-2.089-13.474-3.836-19.146c1.836,0.061,4.132,0.102,5.694,0.146 c-0.75-2.768,0.208-5.746-0.356-8.511C111.531,214.893,115.262,215.941,117.779,214.513z"/> <path fill="#333333" d="M101.081,2.339C86.299,6.034,66.232,17.581,47.532,27.477c0.004-0.001,0.007-0.002,0.01-0.004 c-2.085,1.909-6.005,3.993-12.262,6.266l-0.021,0.009c0.013-0.007,0.028-0.014,0.041-0.021c-3.28,1.585-6.045,2.824-8.446,3.835 c-35.348,20.178,18,58.704,18.664,59.182c13.678,6.281,27.634,8.68,37.184,1.708c21.573-15.752,4.109-31.161,6.849-65.746 c2.645-33.387,23.688-31.965,25.144-31.827C110.852,0.357,106.472,0.991,101.081,2.339z"/> <path opacity="0.23" d="M151.421,250.382c-2.726-1.942-5.688-3.297-7.875-5.604c2.66-4,1.457-9.443,1.323-13.068 c2.371-3.109,2.312-6.69-1.429-8.42c0.254,0.012,0.5-0.027,0.738-0.118c-2.939-3.301-6.948-4.88-11.14-6.002 c-0.061-4.438-2.076-12.091,3.274-12.54c0.738-5.125,0.75-10.143,4.008-14.553c2.627-3.559,9.123-2.825,7.772-9.738 c2.318-2.201,2.189-2.643,3.55-5.77c7.784,2.088,4.413-4.587,7.456-8.021c3.632-4.099,7.2-4.088,12.696-4.868 c0.823,5.771,1.129,9.935,3.327,15.296c0.531-0.973,1.997-1.779,2.634-3.09c4.104,2.004,10.544,4.31,10.872-2.835 c8.506,2.386,20.603,21.31,22.411,28.928c2.739,11.53,2.195,22.164-10.192,26.793c1.338,9.383,3.832,17.579-4.898,20.817 c-11.97,4.442-27.577,4.351-40.027,3.03"/> <path fill="#333333" d="M140.787,262.614c-6.054-5.123-11.007-8.803-14.473-11.6l0,0c-3.062-2.529-5.057-4.2-5.53-6.003l0,0 c-4.43-0.201-32.999-2.951-43.908-37.481l0,0c-11.708-37.099-11.527-61.483-18.17-79.6l0,0c-3.332-9.104-6.937-15.587-9.7-19.789 l0,0c-2.514-3.818-4.303-5.724-4.609-6.04l0,0c-0.966-0.616-11.686-7.505-19.429-15.247l0,0 c-7.804-7.865-16.629-9.261-21.074-21.16l0,0C1.779,59.958,0.021,56.249,0,53.072l0,0c-0.013-3.298,2.09-5.678,7.024-8.204l0,0 c9.851-5.104,13.686-4.325,33.987-14.754l0,0C61.35,19.672,84.302,5.837,100.914,1.672l0,0C105.067,0.635,108.656,0,111.901,0l0,0 c9.628-0.017,15.884,5.696,23.793,21.659l0,0c0.077-0.027,0.158-0.055,0.242-0.086l0,0c0.696-0.207,1.863-0.425,3.978-0.635l0,0 c4.227-0.422,12.227-0.797,27.459-0.8l0,0c16.884,0,29.896-0.512,38.685-1.024l0,0c7.406-0.433,11.795-0.863,12.997-0.988l0,0 c1.285-2.211,9.115-15.147,21.155-15.232l0,0c1.857,0,3.804,0.319,5.82,1.041l0,0c15.82,5.656,33.577,18.374,46.729,24.105l0,0 c13.354,5.834,40.623,23.21,47.112,26.729l0,0c4.998,2.75,15.171,7.846,15.244,17.306l0,0c0,2.769-0.909,5.846-3.041,9.244l0,0 c-9.211,14.696-18.983,19.53-28.81,21.778l0,0c-9.359,2.121-18.14,12.851-25.709,18.375l0,0 c-7.222,5.236-8.105,10.31-11.865,32.427l0,0c-3.729,22.016-5.073,30.388-15.733,54.502l0,0 c-10.491,23.97-17.174,37.938-52.144,37.942l0,0c-1.691,2.967-13.62,23.076-32.326,23.156l0,0c-7.98,0-14.797,0.59-20.941,0.593 l0,0c-0.029,0-0.058,0-0.087,0l0,0C155.619,270.093,148.086,268.802,140.787,262.614L140.787,262.614z M122.05,243.655v0.685 c-0.106,0.894,1.663,2.881,5.124,5.605l0,0c3.432,2.77,8.413,6.476,14.497,11.626l0,0c7.035,5.938,14.095,7.143,22.875,7.15l0,0 c6.055,0,12.895-0.593,20.941-0.593l0,0c9.519,0.01,17.354-5.641,22.821-11.367l0,0c5.466-5.715,8.498-11.412,8.503-11.427l0,0 l0.193-0.362h0.411c34.897-0.101,40.53-13.007,51.288-37.125l0,0c10.626-24.063,11.893-32.127,15.636-54.179l0,0 c3.712-21.954,4.693-27.71,12.413-33.305l0,0c7.374-5.309,16.14-16.237,26.204-18.601l0,0c9.597-2.232,18.869-6.741,27.956-21.174 l0,0c2.031-3.233,2.831-6.05,2.831-8.515l0,0c0.072-8.307-9.432-13.37-14.528-16.103l0,0c-6.581-3.575-33.842-20.934-47.005-26.676 l0,0c-13.365-5.844-31.087-18.525-46.64-24.072l0,0c-1.876-0.672-3.66-0.959-5.361-0.959l0,0 c-5.994-0.009-11.037,3.646-14.587,7.381l0,0c-3.547,3.725-5.544,7.44-5.55,7.449l0,0l-0.17,0.316l-0.355,0.039 c-0.022,0.003-18.35,2.059-52.175,2.059l0,0c-13.306,0-21.075,0.291-25.582,0.641l0,0c-4.486,0.324-5.815,0.814-5.854,0.887l0,0 l-0.26-0.376l-0.722,0.517c-0.039-0.041-0.113-0.123-0.164-0.254l0,0c-8.124-16.428-13.854-21.536-22.89-21.552l0,0 c-3.065-0.003-6.554,0.607-10.654,1.633l0,0C84.993,7.054,62.01,20.857,41.638,31.33l0,0C21.23,41.811,17.223,41.105,7.653,46.085 l0,0c-4.848,2.545-6.271,4.388-6.285,6.987l0,0c-0.02,2.641,1.659,6.383,3.812,12.145l0,0c4.146,11.259,12.5,12.478,20.757,20.67 l0,0c7.949,7.955,19.239,15.09,19.261,15.102l0,0l0.068,0.042l0.05,0.053c0.062,0.059,7.938,7.961,14.676,26.377l0,0 c6.753,18.509,6.523,42.723,18.19,79.656l0,0c8.69,27.472,28.642,34.238,38.099,35.971l0,0c3.147,0.57,5.077,0.567,5.083,0.567l0,0 v0.685v-0.685H122.05L122.05,243.655z M136.107,22.64h-0.401H136.107L136.107,22.64z"/> <g> <g> <path fill="#F9F9F9" d="M16.689,289.998c0,0,12.864-47.352,21.075-66.783c8.21-19.432,27.643-66.781,31.2-78.551 c3.559-11.768,14.369-31.884,20.527-38.042s14.607-15.43,24.354-9.724c0,0,14.5-5.11,24.484-3.804 c9.983,1.308,3.507,7.785,3.507,7.785s4.338-3.505,4.338,4.22s0,16.046-3.922,22.82c-3.923,6.775-6.716,11.589-2.972,11.529 s6.537-1.665,7.012,1.426c0.476,3.091,2.081,11.944-6.061,20.088c-8.143,8.141-8.558,6.416-20.443,18.302 c-11.887,11.888-17.604,20.312-25.137,24.078c-6.492,3.247-22.139,47.182-26.341,84.688"/> <path fill="#333333" d="M16.028,289.816c0.007-0.017,12.856-47.34,21.104-66.867l0,0c8.202-19.412,27.651-66.806,31.177-78.482 l0,0c3.626-11.92,14.375-31.973,20.699-38.331l0,0c4.803-4.767,11.038-11.662,18.615-11.71l0,0c2.037,0,4.153,0.523,6.293,1.723 l0,0c1.864-0.626,12.062-3.948,20.871-3.956l0,0c1.243,0,2.463,0.067,3.631,0.221l0,0c4.431,0.526,6.182,2.332,6.167,4.363l0,0 c-0.021,0.973-0.37,1.879-0.789,2.625l0,0c0.017-0.001,0.033-0.001,0.05-0.001l0,0c0.763-0.02,1.653,0.392,2.18,1.326l0,0 c0.538,0.921,0.83,2.28,0.832,4.374l0,0v0.005c-0.008,7.72,0.025,16.16-4.012,23.157l0,0c-2.632,4.486-4.702,8.249-4.646,9.74 l0,0c0.098,0.633,0,0.647,1.012,0.76l0,0c0.037,0,0.064,0,0.059,0.002l0,0c1.833-0.025,3.455-0.462,4.842-0.471l0,0 c1.307-0.101,2.683,0.721,2.859,2.478l0,0c0.156,1.034,0.456,2.782,0.454,4.948l0,0c0.008,4.253-1.17,10.192-6.709,15.726l0,0 c-8.229,8.223-8.608,6.465-20.444,18.304l0,0c-11.855,11.84-17.536,20.291-25.314,24.207l0,0 c-1.261,0.567-3.562,3.893-5.949,9.008l0,0c-2.429,5.124-5.116,12.07-7.734,20.088l0,0 c-5.236,16.036-10.188,36.367-12.281,55.056l0,0l-1.362-0.153c3.167-28.229,12.759-59.985,20.14-75.576l0,0 c2.502-5.209,4.593-8.592,6.576-9.646l0,0c7.288-3.618,13.044-12.019,24.959-23.953l0,0 c11.934-11.931,12.388-10.237,20.441-18.301l0,0c5.248-5.26,6.302-10.741,6.311-14.759l0,0c0-2.046-0.28-3.693-0.44-4.741l0,0 c-0.291-1.252-0.474-1.213-1.505-1.314l0,0c-1.084-0.012-2.805,0.431-4.85,0.467l0,0c-0.025,0-0.042,0-0.051,0l0,0 c-0.689,0-1.294-0.145-1.751-0.546l0,0c-0.46-0.406-0.636-1.006-0.631-1.583l0,0c0.057-2.326,2.219-5.859,4.831-10.427l0,0 c3.803-6.552,3.836-14.745,3.827-22.471l0,0V105.1c0.006-1.962-0.3-3.111-0.642-3.68l0,0c-0.355-0.563-0.627-0.63-1-0.649l0,0 c-0.337-0.006-0.754,0.145-1.07,0.316l0,0c-0.317,0.168-0.508,0.323-0.508,0.325l0,0l-0.916-1.017 c-0.003-0.006,0.471-0.471,0.947-1.186l0,0c0.484-0.711,0.925-1.647,0.917-2.432l0,0c-0.015-1.101-0.715-2.393-4.977-3.003l0,0 c-1.097-0.146-2.256-0.211-3.452-0.211l0,0c-9.365-0.008-20.697,3.968-20.714,3.979l0,0l-0.301,0.106l-0.273-0.16 c-2.049-1.199-3.994-1.689-5.876-1.692l0,0c-6.675-0.048-12.843,6.464-17.648,11.309l0,0 c-5.993,5.96-16.863,26.139-20.354,37.757l0,0c-3.59,11.86-23.009,59.163-31.225,78.619l0,0 c-4.082,9.659-9.354,26.351-13.593,40.605l0,0c-4.24,14.258-7.445,26.063-7.454,26.087l0,0l0.003,0.003L16.028,289.816 L16.028,289.816z"/> </g> <path opacity="0.5" d="M112.627,96.266c-0.002,0.002-13.239,21.457-11.045,19.264s13.724-19.111,13.725-19.113 c-0.927,0.293-1.461,0.481-1.461,0.481C113.437,96.658,113.031,96.454,112.627,96.266z M121.258,151.419 c4.934-2.504,16.914-12.171,16.915-12.171c-1.234-0.626-0.614-2.68,0.898-5.641C139.071,133.607,116.323,153.926,121.258,151.419z M121.231,123.16c5.523-3.619,23.171-22.906,23.224-22.964c-1.211-0.449-2.618,0.682-2.618,0.682s1.878-1.881,2.05-3.821l0,0 C143.887,97.058,115.699,126.785,121.231,123.16z"/> <path fill="#CAC3BE" d="M147.367,91.493c-2.519-0.767-6.478,0.416-9.397,1.562c0.119,0.014,0.242,0.024,0.36,0.04 c9.983,1.308,3.507,7.785,3.507,7.785s0.301-0.239,0.74-0.456C146.574,96.357,149.895,92.262,147.367,91.493z M146.175,105.099 c0,1.87-0.002,3.774-0.058,5.683c3.436-5.388,6.44-11.467,3.73-11.467c-1.496,0-3.054,0.737-4.463,1.7 C145.85,101.752,146.175,103.003,146.175,105.099z M115.891,85.77c-3.139,1.308-7.35,6.377-9.689,9.438 c2.438-0.301,4.993,0.137,7.645,1.689c0,0,0.16-0.057,0.444-0.151C117.101,91.411,119.008,84.47,115.891,85.77z M152.327,136.515 c-1.731,0-4.603,1.212-7.305,2.588c0.66,0.204,1.106,0.704,1.271,1.771c0.212,1.375,0.643,3.895,0.343,6.981 C151.667,142.845,155.17,136.515,152.327,136.515z"/> <g> <path fill="#F9F9F9" d="M68.965,144.664c0.25-0.824,0.539-1.696,0.855-2.596l0,0c-2.003-3.984-9.062,2.84-10.017,15.049 c-0.953,12.21-3.455,20.861-3.455,20.861l0,0C62.177,163.426,67.303,150.162,68.965,144.664z"/> <path fill="#333333" d="M55.688,177.787c-0.002-0.022,2.482-8.58,3.432-20.723l0,0c0.391-5.021,1.792-9.16,3.486-12.079l0,0 c1.721-2.893,3.629-4.679,5.561-4.74l0,0c0.812-0.017,1.566,0.418,2.048,1.137l0,0h0.573l-0.322,0.913 c-0.315,0.894-0.6,1.753-0.846,2.567l0,0c-1.681,5.56-6.805,18.804-12.636,33.368l0,0l-0.053,0.134l-0.1,0.098L55.688,177.787 L55.688,177.787z M63.792,145.674c-1.579,2.717-2.93,6.672-3.308,11.497l0,0c-0.382,4.897-1.011,9.224-1.63,12.659l0,0 c4.459-11.289,8.115-20.931,9.453-25.365l0,0c0.227-0.742,0.482-1.521,0.76-2.322l0,0c-0.272-0.41-0.535-0.514-0.9-0.53l0,0 c-0.021-0.001-0.04-0.002-0.061-0.002l0,0C67.16,141.611,65.314,142.995,63.792,145.674L63.792,145.674z"/> </g> </g> <g> <g> <path fill="#F9F9F9" d="M331.4,276.939c-4.422-15.476-11.951-40.787-17.417-53.725c-8.21-19.432-27.643-66.781-31.201-78.551 c-3.558-11.768-14.368-31.884-20.526-38.042s-14.608-15.43-24.354-9.724c0,0-14.501-5.11-24.484-3.804 c-9.984,1.308-3.507,7.785-3.507,7.785s-4.338-3.505-4.338,4.22s-0.001,16.046,3.922,22.82 c3.923,6.775,6.716,11.589,2.972,11.529s-6.537-1.665-7.013,1.426c-0.476,3.091-2.08,11.944,6.062,20.088 c8.142,8.141,8.558,6.416,20.443,18.302c11.886,11.888,17.603,20.312,25.136,24.078c6.526,3.265,22.301,47.635,26.405,85.266"/> <path fill="#333333" d="M262.776,213.043c-2.401-5.158-4.719-8.518-5.988-9.088l0,0c-7.777-3.919-13.456-12.369-25.313-24.207 l0,0c-11.838-11.839-12.216-10.084-20.444-18.304l0,0c-5.545-5.536-6.719-11.47-6.71-15.726l0,0 c-0.003-2.166,0.297-3.914,0.456-4.948l0,0c0.171-1.757,1.55-2.58,2.855-2.477l0,0c1.387,0.008,3.012,0.445,4.813,0.47l0,0 c0.022-0.002,0.05-0.002,0.086-0.002l0,0c1.013-0.112,0.914-0.126,1.015-0.759l0,0c0.054-1.491-2.015-5.256-4.646-9.742l0,0 c-4.04-6.996-4.006-15.438-4.012-23.157l0,0v-0.005c0.003-2.093,0.294-3.452,0.832-4.374l0,0 c0.524-0.933,1.415-1.348,2.178-1.325l0,0c0.017,0,0.034,0,0.052,0.001l0,0c-0.419-0.745-0.771-1.651-0.792-2.624l0,0 c-0.014-2.032,1.74-3.835,6.169-4.362l0,0c1.166-0.154,2.388-0.222,3.631-0.222l0,0c8.81,0.008,19.011,3.327,20.872,3.955l0,0 c2.139-1.199,4.255-1.725,6.294-1.722l0,0c7.574,0.047,13.811,6.942,18.615,11.708l0,0c6.323,6.36,17.074,26.412,20.699,38.332 l0,0c3.524,11.677,22.973,59.07,31.176,78.482l0,0c5.494,13.01,13.017,38.314,17.443,53.803l0,0l-1.316,0.375 c-4.418-15.46-11.952-40.78-17.391-53.646l0,0c-8.218-19.456-27.634-66.757-31.226-78.618l0,0 c-3.491-11.618-14.359-31.799-20.354-37.759l0,0c-4.806-4.844-10.975-11.355-17.646-11.308l0,0 c-1.885,0.003-3.829,0.491-5.875,1.689l0,0l-0.274,0.163l-0.303-0.106c-0.011,0.002-2.85-0.995-6.853-1.992l0,0 c-4.004-0.995-9.179-1.993-13.861-1.987l0,0c-1.195,0-2.358,0.064-3.451,0.208l0,0c-4.261,0.613-4.962,1.902-4.979,3.006l0,0 c-0.008,0.781,0.434,1.72,0.919,2.432l0,0c0.476,0.715,0.947,1.183,0.947,1.186l0,0l-0.914,1.017 c-0.005,0.002-0.193-0.157-0.51-0.325l0,0c-0.316-0.171-0.734-0.322-1.072-0.317l0,0c-0.373,0.02-0.646,0.087-0.998,0.65l0,0 c-0.342,0.569-0.647,1.717-0.645,3.679l0,0v0.005c-0.006,7.727,0.025,15.919,3.833,22.47l0,0 c2.611,4.567,4.771,8.103,4.828,10.428l0,0c0.005,0.577-0.172,1.176-0.631,1.583l0,0c-0.46,0.401-1.065,0.546-1.755,0.546l0,0 c-0.008,0-0.024,0-0.075,0l0,0c-2.018-0.037-3.737-0.479-4.824-0.468l0,0c-1.031,0.101-1.21,0.062-1.502,1.314l0,0 c-0.16,1.048-0.44,2.695-0.442,4.741l0,0c0.008,4.018,1.062,9.496,6.312,14.756l0,0c8.055,8.063,8.506,6.373,20.443,18.304l0,0 c11.914,11.937,17.669,20.336,24.956,23.954l0,0c1.994,1.059,4.1,4.471,6.615,9.725l0,0c2.479,5.244,5.197,12.294,7.842,20.418 l0,0c5.284,16.246,10.263,36.779,12.325,55.656l0,0l-1.361,0.15C279.755,260.557,270.113,228.557,262.776,213.043 L262.776,213.043z"/> </g> <path opacity="0.5" d="M237.902,96.897c0,0-0.534-0.188-1.461-0.481c0.001,0.002,11.53,16.92,13.725,19.113 s-11.044-19.262-11.045-19.264C238.717,96.454,238.312,96.658,237.902,96.897z M212.677,133.607 c1.512,2.961,2.132,5.015,0.898,5.641c0,0,11.981,9.667,16.915,12.171C235.424,153.926,212.677,133.607,212.677,133.607z M207.861,97.058L207.861,97.058c0.172,1.939,2.05,3.821,2.05,3.821s-1.407-1.131-2.619-0.682 c0.054,0.058,17.701,19.345,23.225,22.964C236.049,126.785,207.861,97.058,207.861,97.058z"/> <path fill="#CAC3BE" d="M209.171,100.423c0.439,0.216,0.74,0.456,0.74,0.456s-6.478-6.477,3.507-7.785 c0.118-0.016,0.24-0.025,0.36-0.04c-2.92-1.146-6.88-2.328-9.398-1.562C201.854,92.262,205.174,96.357,209.171,100.423z M206.363,101.015c-1.409-0.963-2.968-1.7-4.463-1.7c-2.71,0,0.295,6.079,3.729,11.467c-0.056-1.908-0.057-3.812-0.057-5.683 C205.573,103.003,205.897,101.752,206.363,101.015z M237.458,96.746c0.284,0.095,0.444,0.151,0.444,0.151 c2.65-1.553,5.205-1.99,7.645-1.689c-2.34-3.062-6.552-8.131-9.689-9.438C232.74,84.47,234.647,91.411,237.458,96.746z M205.112,147.855c-0.3-3.087,0.131-5.606,0.342-6.981c0.165-1.067,0.61-1.567,1.271-1.771c-2.702-1.376-5.573-2.588-7.306-2.588 C196.578,136.515,200.081,142.845,205.112,147.855z"/> <g> <path fill="#F9F9F9" d="M282.782,144.664c-0.249-0.824-0.538-1.696-0.855-2.596c0.001,0,0.001,0,0.001,0 c2.003-3.984,9.062,2.84,10.016,15.049c0.954,12.21,3.456,20.861,3.456,20.861h-0.001 C289.571,163.426,284.444,150.162,282.782,144.664z"/> <path fill="#333333" d="M294.816,178.364l-0.053-0.134c-5.834-14.564-10.955-27.809-12.637-33.368l0,0l0.655-0.198l0.654-0.199 c1.339,4.435,4.996,14.074,9.456,25.362l0,0c-0.62-3.434-1.25-7.761-1.633-12.656l0,0c-0.375-4.825-1.729-8.78-3.31-11.497l0,0 c-1.556-2.737-3.445-4.122-4.372-4.061l0,0c-0.366,0.016-0.628,0.121-0.899,0.531l0,0c0.279,0.8,0.534,1.578,0.758,2.32l0,0 l-0.654,0.199l-0.655,0.198c-0.247-0.813-0.532-1.673-0.846-2.567l0,0l-0.322-0.913h0.57c0.481-0.719,1.236-1.154,2.049-1.137 l0,0c1.929,0.061,3.837,1.847,5.557,4.74l0,0c1.694,2.919,3.096,7.059,3.49,12.079l0,0c0.948,12.143,3.426,20.703,3.432,20.723 l0,0l-1.144,0.675L294.816,178.364L294.816,178.364z"/> </g> </g> <path fill="#333333" d="M880.49,244.34c0,0-32.145,0-43.834-37.016c-11.688-37.016-11.483-61.315-18.182-79.627 s-14.516-26.127-14.516-26.127s-11.351-7.167-19.381-15.198c-8.029-8.03-16.619-9.337-20.914-20.915 c-4.296-11.578-6.91-14.938,2.801-19.98c9.709-5.042,13.631-4.298,33.987-14.754c20.353-10.458,43.322-24.276,59.754-28.384 c16.433-4.109,23.53-1.681,34.361,20.354c0,0-1.868-1.867,31.931-1.867s52.1-2.055,52.1-2.055s10.644-19.793,26.33-14.191 c15.686,5.602,33.425,18.301,46.684,24.089c13.258,5.789,40.522,23.155,47.059,26.704c6.535,3.548,21.102,11.017,11.951,25.583 s-18.674,19.235-28.385,21.477s-18.485,13.071-25.955,18.487c-7.471,5.416-8.404,10.831-12.139,32.866 c-3.735,22.036-5.043,30.253-15.688,54.342c-10.643,24.087-16.807,37.533-51.912,37.533c0,0-12.322,23.156-31.932,23.156 c-19.607,0-32.117,3.548-44.257-6.723C888.218,251.822,880.49,247.314,880.49,244.34z"/> <path opacity="0.5" d="M880.957,142.107c-12.015-10.775-21.15,3.536-23.874-17.446c-1.798-13.864,6.288-23.997,11.577-35.898 c5.127-11.537,8.451-20.669,11.419-32.828c3.293-13.482,9.868-24.367,12.887-36.398c-9.963-19.093-17.15-21.101-32.76-17.198 c-16.432,4.107-39.401,17.926-59.754,28.384c-20.356,10.456-24.278,9.712-33.987,14.754c-9.711,5.042-7.097,8.402-2.801,19.98 c4.295,11.577,12.885,12.885,20.914,20.915c8.03,8.03,19.381,15.198,19.381,15.198s7.817,7.815,14.516,26.127 s6.493,42.612,18.182,79.627c4.092,12.956,10.689,21.365,17.538,26.84c1.195-6.915,1.947-14.291,5.208-20.704 c3.196-6.278,6.518-6.747,7.785-13.502c1.531-8.175-4.989-14.603,1.816-21.72C881.84,177.967,889.764,150.007,880.957,142.107z"/> <path opacity="0.5" d="M1110.621,80.955c9.15-14.565-5.416-22.034-11.951-25.583c-6.536-3.548-33.801-20.915-47.059-26.704 c-13.259-5.788-30.998-18.487-46.684-24.089c-12.138-4.334-21.251,6.53-24.756,11.67c6.139,3.892,13.816,5.544,19.663,9.392 c-8.637,12.356-23.423,28.285-23.077,44.085c0.311,14.17,24.494,24.161,33.616,39.484c-12.644-2.747-43.448,0.254-48.818,14.884 c-3.485,9.497,3.094,19.298,8.149,26.75c9.532,14.047,18.053,29,17.004,47.223c-1.007,17.501-8.338,40.362,2.285,46.89 c24.347-3.039,30.223-15.923,39.461-36.832c10.645-24.089,11.952-32.306,15.688-54.342c3.734-22.035,4.668-27.45,12.139-32.866 c7.47-5.416,16.244-16.246,25.955-18.487S1101.471,95.521,1110.621,80.955z"/> <path fill="#333333" d="M1110.621,80.955c9.15-14.565-5.416-22.034-11.951-25.583c-6.536-3.548-33.801-20.915-47.059-26.704 c-13.259-5.788-30.998-18.487-46.684-24.089c-15.687-5.602-26.33,14.191-26.33,14.191s20.744-15.418,31.548-4.615 c10.804,10.805-3.15,39.616-5.401,53.571c-2.252,13.955,5.852,43.217,25.21,43.217c18.45,0,21.901,2.109,48.245-7.082 c1.328-0.617,2.672-1.116,4.037-1.431c1.842-0.664,3.568-1.147,5.191-1.483C1095.342,98.198,1103.107,92.915,1110.621,80.955z"/> <path fill="#515151" d="M836.828,108.693c16.657-5.853,29.26-20.709,22.958-43.667C853.999,43.94,847.1,9.207,873.905,0.886 c-3.863-0.541-8.27,0.096-13.699,1.453c-16.432,4.107-39.401,17.926-59.754,28.384c-20.356,10.456-24.278,9.712-33.987,14.754 c-9.711,5.042-7.097,8.402-2.801,19.98c4.295,11.577,12.885,12.885,20.914,20.915c8.03,8.03,19.381,15.198,19.381,15.198 S820.171,114.546,836.828,108.693z"/> <path fill="#FFFFFF" d="M976.199,244.479c-0.318-1.877,2.864-3.693,3.109-5.408c0.148-1.036,2.029-3.815,3.052-7.791 c0.752-2.924,0.093-11.002-0.037-14.297c-0.595-15.267-1.711-30.502-10.293-43.081c-9.638-14.128-23.322-29.99-26.694-47.493 c-4.262-22.126,13.035-41.828,9.822-64.626c-1.48-0.287-3.193,0.97-4.512,1.59c-0.742-0.073-1.15-3.106-1.869-3.359 c-1.382,1.438-2.684,2.685-4.385,3.842c-0.301-2.965-2.277-7.191-1.83-10.735c0.086,0.07-5.345-3.535-6.461-4.164 c-0.425,3.269-2.838,6.385-3.457,8.73c-1.733-5.466-3.781-11.017-6.892-15.858c-4.451,17.239,0.318,38.161,1.956,55.577 c1.381,14.688,5.565,36.788-5.062,46.053c-3.73,3.251-14.184,3.19-17.997,6.188c-3.519,2.768-7.66,9.35-10.226,13.651 c-8.112,13.604-12.623,27.94-16.573,43.21c-2.903,11.218,1.579,20.204,1.076,31.295c0.903,1.707,1.105,3.194,1.026,4.746 c0.338,0.015,0.537,0.017,0.537,0.017c0,2.95,7.728,7.418,19.864,17.598c12.14,10.181,24.649,6.666,44.257,6.666 C962.324,266.828,974.09,248.1,976.199,244.479z"/> <path fill="#515151" d="M978.598,18.771c0,0,20.744-15.418,31.548-4.615c10.804,10.805-3.15,39.616-5.401,53.571 c-1.355,8.401,1.049,22.344,7.396,32.117c-6.376-20.518,3.298-44.884,7.065-69.538c1.344-8.796,0.809-15.053-0.428-19.478 c-4.684-2.443-9.352-4.643-13.85-6.25C989.241-1.022,978.598,18.771,978.598,18.771z"/> <path fill="#515151" d="M1110.621,80.955c6.462-10.286,1.096-17.028-4.916-21.355c-9.62,3.678-6.95,15.309-12.879,28.577 c-7.146,15.997-35.729,21.795-36.077,21.865c5.343-1,11.883-2.842,21.45-6.18c1.328-0.617,2.672-1.116,4.037-1.431 c1.842-0.664,3.568-1.147,5.191-1.483C1095.342,98.198,1103.107,92.915,1110.621,80.955z"/> <path opacity="0.18" fill="#AF800B" d="M897.2,111.097c4.271,6.551,11.206,9.454,18.805,8.119 c1.702-4.886,3.268-30.205,1.681-35.653c-4.494-15.438-18.946-5.615-28.216-17.352c-6.783,10.91-9.337,15.382-19.658,22.541 c-6.912,4.795-21.622,12.015-16.124,22.714c16.82-8.743,27.863-12.304,43.513,0.059"/> <path opacity="0.18" fill="#AF800B" d="M1025.429,139.974c-3.843-4.896-6.981-10.176-9.474-15.668 c-12.309,8.787-17.81,27.337-37.191,23.177c2.261,8.784,0.426,19.805,5.604,26.855l-0.428,0.428 c2.097,2.799,9.596,5.658,10.348,7.124c6.286,12.272-12.28,26.975-4.212,40.349c10.37,17.191,18.219-12.101,30.953-15.041 c2.97-4.176,10.337-12.93,16.513-22.399c3.003-9.626,4.37-17.856,6.601-31.014c0.006-0.036,0.012-0.071,0.017-0.107 C1039.271,148.971,1029.02,144.548,1025.429,139.974z"/> <path opacity="0.18" fill="#AF800B" d="M954.885,117.506c-25.672-40.989,44.606-47.162,49.084-11.581 c-23.859-11.019-31.215,16.01-50.793,11.581"/> <path opacity="0.18" fill="#AF800B" d="M895.737,22.107c-1.822,9.569-6.942,19.373-11.386,26.187 c9.063,1.536,26.154-11.278,34.562-15.995c6.44-3.613,13.387-2.779,12.988-11.492c-1.758,0.012-3.553,0.019-5.404,0.019 C905.308,20.826,898.14,21.56,895.737,22.107z"/> <path opacity="0.18" fill="#AF800B" d="M979.381,17.456c-0.513,0.815-0.783,1.315-0.783,1.315s-10.713,1.201-30.862,1.766 c1.512,1.149,3.306,2.367,5.496,4.129c2.442,1.965,7.521-0.582,10.132,1.533c2.198,1.778,1.717,5.875,3.399,7.32 c5.183,4.452,4.953,10.805,15.141,12.596C984.566,37.541,983.527,26.341,979.381,17.456z"/> <path d="M916.722,209.491C916.722,209.49,916.721,209.49,916.722,209.491c1.893-0.152,4.945-0.713,4.79-2.789 c-0.227-2.999-3.18-7.949,2.176-8.349c5.355-0.403,9.612,4.665,6.045,8.811c-2.6,3.019-8.791,3.477-12.146,3.517 c0.104,0.297,0.176,0.634,0.207,1.04c0.418,5.568,5.111,7.803,11.418,8.624c6.311,0.821,6.195,7.938,6.195,7.938 c0.878-11.27,16.539-6.411,18.615-13.242c0.564-1.864,1.496-3.127,2.555-4.259c-4.445,0.396-10.208,0.081-11.685-3.863 c-2.489-6.643,1.868-9.248,5.915-8.411c3.637,0.752,0.299,9.485,8.146,9.89c2.198-2.297,4.252-5.339,4.398-12.583 c0.273-13.593-19.805-17.045-27.518-16.467c-7.713,0.577-28.932-0.85-27.664,16.073 C909.179,208.898,914.416,207.719,916.722,209.491z"/> <path d="M964.018,242.982c-2.013,1.332-3.943,0.956-5.307-0.241c-0.585,0.175-1.203,0.369-1.766,0.597 c0.078-0.035-0.387-0.295-0.586-0.253c-0.416,0.288-0.988,0.724-1.35,0.994c-2.127-0.72-3.76-1.669-5.344-2.134 c-0.01-0.002-0.02-0.005-0.025-0.008c-1.77-0.512-3.48-0.418-5.766,1.31c-4.299-2.493-8.781-4.308-10.481-8.544 c-0.292,0.754-0.62,1.498-1.024,2.275c-0.463-0.093-0.533-0.277-1.07-0.36c-0.778,1.318-1.93,2.7-3.02,3.043 c-0.035,0.015,0.102,0.508,0.023,0.597c0.086,0.019-0.955-0.65-0.857-0.579c-0.381,0.849-1.441,1.335-2.029,1.942 c-1.695-1.188-3.766-1.575-4.842,0.174c-0.258,0.092-0.521-0.566-0.886-0.378c-0.61,0.587-1.422,1.002-2.359,1.292l0,0 c-0.321,0.098-0.657,0.183-1.001,0.25c-0.021,0.006-0.048,0.008-0.069,0.012c-0.329,0.063-0.666,0.121-1.013,0.164 c-0.022,0.003-0.047,0.006-0.07,0.007c-0.352,0.044-0.711,0.077-1.08,0.102c-0.016,0.003-0.029,0.003-0.045,0.003 c-0.373,0.025-0.756,0.04-1.141,0.049c-3.396,0.07-7.15-0.412-9.71-0.405c-3.544,0.01-8.937,1.33-11.468-0.775 c7.844,6.711,17.646,13.185,30.859,13.12c12.032-0.059,26.641-1.861,37.698-5.79c4.024-1.432,8.965-4.099,9.763-7.535 C968.225,243.426,965.82,244.601,964.018,242.982z"/> <path d="M855.981,117.378c0,0,7.896-10.43,20.113-10.43c12.216,0,15.048,19.07,15.048,19.07S863.132,138.236,855.981,117.378z"/> <path fill="#664C21" d="M887.475,118.054c0-0.018-0.002-0.034-0.004-0.053c-1.964-4.223-5.507-8.859-11.606-8.859 c-7.585,0-13.343,3.918-16.274,6.448c-0.239,0.793-0.379,1.615-0.379,2.464c0,1.752,0.553,3.402,1.511,4.867 c5.362,5.472,14.141,5.254,20.627,4.084C885.047,125.045,887.475,121.77,887.475,118.054z"/> <ellipse cx="876.382" cy="116.922" rx="6.791" ry="6.014"/> <ellipse opacity="0.3" fill="#FFFFFF" cx="872.918" cy="114.508" rx="3.463" ry="3.115"/> <path d="M1006.49,118.731c0,0-7.589-9.272-19.329-9.272c-11.741,0-14.462,16.954-14.462,16.954S999.617,137.274,1006.49,118.731z"/> <path fill="#664C21" d="M976.224,119.112c0-0.017,0.003-0.032,0.003-0.048c1.889-3.851,5.294-8.079,11.155-8.079 c7.288,0,12.823,3.573,15.64,5.88c0.23,0.723,0.365,1.473,0.365,2.247c0,1.598-0.531,3.102-1.451,4.438 c-5.154,4.989-13.592,4.792-19.824,3.725C978.555,125.487,976.224,122.5,976.224,119.112z"/> <ellipse cx="986.803" cy="117.772" rx="6.526" ry="5.484"/> <ellipse opacity="0.3" fill="#FFFFFF" cx="990.132" cy="115.571" rx="3.328" ry="2.841"/> <path opacity="0.18" fill="#AF800B" d="M876.904,214.513c0.089-2.117,0.366-4.287,0.946-6.55 c3.95-15.404,8.461-29.869,16.573-43.592c2.565-4.34,6.707-10.98,10.226-13.773c3.071-2.434,10.444-2.87,15.147-4.66 c1.359-4.31-0.994-7.743-10.178-9.741c-15.313-3.332-46.966,7.169-57.713-10.997l-0.428,2.135 c-6.085-8.449-14.762,5.356-19.291,11.052c-4.385-1.435-7.74-0.637-10.291,1.48c3.691,16.724,5.481,38.075,14.76,67.458 c5.563,17.619,15.76,26.842,24.92,31.679c1.818-6.708-2.088-13.474-3.835-19.146c1.835,0.061,4.131,0.102,5.694,0.146 c-0.75-2.768,0.207-5.746-0.357-8.511C870.657,214.893,874.387,215.941,876.904,214.513z"/> <path fill="#333333" d="M860.206,2.339c-14.781,3.695-34.848,15.242-53.548,25.138c0.003-0.001,0.007-0.002,0.01-0.004 c-2.086,1.909-6.005,3.993-12.263,6.266l-0.02,0.009c0.012-0.007,0.028-0.014,0.04-0.021c-3.279,1.585-6.045,2.824-8.447,3.835 c-35.346,20.178,18.002,58.704,18.665,59.182c13.679,6.281,27.635,8.68,37.185,1.708c21.572-15.752,4.108-31.161,6.849-65.746 c2.645-33.387,23.688-31.965,25.143-31.827C869.978,0.357,865.597,0.991,860.206,2.339z"/> <path opacity="0.23" d="M910.546,250.382c-2.725-1.942-5.688-3.297-7.874-5.604c2.66-4,1.456-9.443,1.322-13.068 c2.372-3.109,2.312-6.69-1.429-8.42c0.255,0.012,0.501-0.027,0.738-0.118c-2.938-3.301-6.948-4.88-11.139-6.002 c-0.061-4.438-2.078-12.091,3.274-12.54c0.738-5.125,0.75-10.143,4.009-14.553c2.625-3.559,9.122-2.825,7.771-9.738 c2.318-2.201,2.19-2.643,3.551-5.77c7.783,2.088,4.412-4.587,7.455-8.021c3.633-4.099,7.201-4.088,12.697-4.868 c0.822,5.771,1.129,9.935,3.326,15.296c0.531-0.973,1.997-1.779,2.634-3.09c4.105,2.004,10.544,4.31,10.872-2.835 c8.506,2.386,20.604,21.31,22.412,28.928c2.739,11.53,2.195,22.164-10.193,26.793c1.338,9.383,3.832,17.579-4.898,20.817 c-11.97,4.442-27.576,4.351-40.027,3.03"/> <path fill="#333333" d="M899.912,262.614c-6.053-5.123-11.005-8.803-14.472-11.6l0,0c-3.061-2.529-5.055-4.2-5.531-6.003l0,0 c-4.427-0.201-32.998-2.951-43.905-37.481l0,0c-11.712-37.099-11.527-61.483-18.174-79.6l0,0 c-3.331-9.104-6.937-15.587-9.696-19.789l0,0c-2.527-3.835-4.322-5.74-4.617-6.043l0,0c-1.008-0.642-11.695-7.518-19.424-15.243 l0,0c-7.801-7.865-16.629-9.261-21.071-21.16l0,0c-2.117-5.737-3.876-9.446-3.896-12.623l0,0c-0.014-3.298,2.093-5.678,7.023-8.204 l0,0c9.852-5.104,13.687-4.325,33.987-14.754l0,0c20.339-10.441,43.291-24.276,59.903-28.441l0,0 C864.192,0.635,867.781,0,871.029,0l0,0c9.628-0.017,15.88,5.696,23.793,21.659l0,0c0.078-0.027,0.158-0.056,0.242-0.086l0,0 c0.694-0.207,1.86-0.425,3.977-0.635l0,0c4.227-0.422,12.227-0.797,27.457-0.8l0,0c16.887,0,29.896-0.512,38.686-1.024l0,0 c7.41-0.434,11.797-0.864,12.998-0.988l0,0c1.285-2.211,9.111-15.147,21.153-15.232l0,0c1.856,0,3.804,0.319,5.823,1.041l0,0 c15.818,5.656,33.574,18.374,46.726,24.105l0,0c13.354,5.834,40.623,23.21,47.11,26.729l0,0c5.003,2.75,15.176,7.846,15.246,17.306 l0,0c0,2.769-0.906,5.846-3.041,9.244l0,0c-9.211,14.696-18.984,19.53-28.811,21.778l0,0c-9.355,2.121-18.139,12.851-25.708,18.375 l0,0c-7.22,5.236-8.106,10.31-11.864,32.427l0,0c-3.727,22.016-5.075,30.388-15.734,54.502l0,0 c-10.488,23.97-17.171,37.938-52.142,37.942l0,0c-1.692,2.967-13.622,23.076-32.329,23.156l0,0c-7.979,0-14.796,0.59-20.938,0.593 l0,0c-0.03,0-0.059,0-0.088,0l0,0C914.744,270.093,907.211,268.802,899.912,262.614L899.912,262.614z M881.174,243.655v0.685 c-0.106,0.894,1.664,2.881,5.128,5.605l0,0c3.429,2.77,8.411,6.476,14.497,11.626l0,0c7.031,5.938,14.092,7.143,22.875,7.15l0,0 c6.055,0,12.891-0.593,20.938-0.593l0,0c9.52,0.01,17.354-5.641,22.822-11.367l0,0c5.465-5.715,8.498-11.412,8.506-11.427l0,0 l0.193-0.362h0.412c34.895-0.101,40.526-13.007,51.283-37.125l0,0c10.627-24.063,11.896-32.127,15.64-54.179l0,0 c3.708-21.954,4.689-27.71,12.41-33.305l0,0c7.373-5.309,16.14-16.237,26.204-18.601l0,0c9.596-2.232,18.867-6.741,27.959-21.174 l0,0c2.027-3.233,2.827-6.05,2.827-8.515l0,0c0.073-8.307-9.431-13.37-14.526-16.103l0,0c-6.582-3.575-33.843-20.934-47.006-26.676 l0,0c-13.365-5.844-31.086-18.525-46.641-24.072l0,0c-1.875-0.672-3.659-0.959-5.36-0.959l0,0 c-5.993-0.009-11.036,3.646-14.588,7.381l0,0c-3.546,3.725-5.544,7.44-5.546,7.449l0,0l-0.172,0.316l-0.356,0.039 c-0.022,0.003-18.349,2.059-52.175,2.059l0,0c-13.305,0-21.074,0.291-25.581,0.641l0,0c-4.486,0.324-5.813,0.814-5.853,0.887l0,0 l-0.261-0.375l-0.721,0.516c-0.042-0.041-0.116-0.123-0.168-0.253l0,0c-8.119-16.43-13.852-21.537-22.886-21.554l0,0 c-3.066-0.003-6.558,0.607-10.658,1.633l0,0c-16.253,4.05-39.237,17.854-59.609,28.327l0,0 c-20.403,10.48-24.415,9.775-33.983,14.755l0,0c-4.848,2.545-6.269,4.388-6.285,6.987l0,0c-0.02,2.641,1.661,6.383,3.812,12.145 l0,0c4.146,11.259,12.5,12.478,20.757,20.67l0,0c7.949,7.955,19.239,15.09,19.261,15.102l0,0l0.067,0.042l0.053,0.053 c0.059,0.059,7.936,7.961,14.673,26.377l0,0c6.755,18.509,6.524,42.723,18.194,79.656l0,0 c8.687,27.472,28.639,34.238,38.095,35.971l0,0c3.147,0.57,5.078,0.567,5.083,0.567l0,0v0.685v-0.685H881.174L881.174,243.655z M895.231,22.64h-0.398H895.231L895.231,22.64z"/> <g> <g> <path fill="#F9F9F9" d="M818.547,277.408c14.762-17.774,43.511-53.039,49.904-62.595c6.837-10.219,23.049-26.306,30.734-30.398 c7.688-4.093,18.475-10.495,26.131-2.193c0,0,15.361-0.658,24.529,3.505c9.168,4.165,1.082,8.469,1.082,8.469 s5.173-2.086,2.918,5.303c-2.254,7.389-4.682,15.348-10.409,20.684c-5.729,5.336-9.805,9.125-6.206,10.16 c3.598,1.037,6.738,0.314,6.29,3.41c-0.446,3.095-1.495,12.033-11.659,17.444c-10.164,5.412-10.057,3.642-24.894,11.541 s-22.764,14.291-31.069,15.695c-2.076,0.353-5.889,3.753-10.62,9.253"/> <path fill="#333333" d="M864.759,287.239c4.809-5.53,8.489-8.98,11.024-9.48l0,0c8.028-1.334,15.984-7.688,30.861-15.626l0,0 c14.898-7.931,14.836-6.18,24.895-11.541l0,0c9.872-5.272,10.846-13.842,11.301-16.934l0,0c0.027-0.177,0.037-0.328,0.037-0.458 l0,0c-0.053-0.876-0.283-0.979-1.385-1.324l0,0c-1.061-0.267-2.687-0.372-4.453-0.877l0,0c-1.061-0.26-1.877-1.022-1.854-2.013 l0,0c0.049-1.303,0.998-2.506,2.376-4.05l0,0c1.394-1.522,3.29-3.286,5.407-5.257l0,0c5.551-5.158,7.972-12.988,10.221-20.381 l0,0c0.391-1.28,0.539-2.238,0.539-2.926l0,0c-0.098-1.72-0.615-1.661-1.371-1.768l0,0c-0.594-0.003-1.171,0.222-1.174,0.225l0,0 l-0.578-1.238c-0.005-0.009,0.758-0.406,1.515-1.078l0,0c0.768-0.675,1.431-1.587,1.415-2.424l0,0 c0.014-0.912-0.732-2.261-3.973-3.74l0,0c-6.76-3.085-17.273-3.491-21.89-3.483l0,0c-1.46,0-2.323,0.038-2.326,0.038l0,0 l-0.315,0.013l-0.217-0.232c-2.608-2.814-5.487-3.815-8.566-3.823l0,0c-5.587-0.018-11.779,3.502-16.74,6.158l0,0 c-7.472,3.949-23.757,20.08-30.488,30.177l0,0c-6.448,9.631-35.173,44.855-49.945,62.647l0,0v0.005l-1.055-0.878 c14.749-17.76,43.523-53.059,49.86-62.537l0,0c6.945-10.345,23.082-26.386,30.983-30.623l0,0 c4.948-2.624,11.242-6.303,17.385-6.318l0,0c3.299-0.01,6.564,1.113,9.357,4.034l0,0c0.383-0.013,1.1-0.03,2.067-0.03l0,0 c4.704,0.01,15.279,0.359,22.454,3.606l0,0c3.396,1.533,4.764,3.233,4.777,4.987l0,0c-0.057,1.387-0.84,2.482-1.664,3.266l0,0 c0.335,0.097,0.67,0.263,0.969,0.533l0,0c0.572,0.523,0.895,1.363,0.889,2.484l0,0c0,0.881-0.182,1.956-0.597,3.323l0,0 c-2.261,7.386-4.692,15.471-10.599,20.984l0,0c-2.115,1.97-4,3.727-5.332,5.181l0,0c-1.348,1.435-2.062,2.661-2.015,3.125l0,0 c0.026,0.259,0.04,0.415,0.864,0.696l0,0c1.6,0.466,3.141,0.558,4.4,0.865l0,0c1.229,0.228,2.478,1.067,2.427,2.652l0,0 c0,0.206-0.017,0.419-0.051,0.647l0,0c-0.434,3.094-1.558,12.401-12.013,17.951l0,0c-10.268,5.463-10.119,3.673-24.895,11.543 l0,0c-14.797,7.862-22.694,14.289-31.278,15.768l0,0c-1.616,0.198-5.56,3.555-10.212,9.023l0,0L864.759,287.239L864.759,287.239z "/> </g> <path opacity="0.5" d="M924.336,181.262c-0.004,0.001-18.925,16.659-16.186,15.203c2.739-1.459,18.702-14.276,18.705-14.278 c-0.973,0.011-1.539,0.035-1.539,0.035C924.996,181.873,924.667,181.559,924.336,181.262z M916.497,236.533 c5.449-0.957,19.729-6.706,19.731-6.706c-0.997-0.959,0.193-2.742,2.505-5.134C938.733,224.693,911.047,237.491,916.497,236.533z M924.718,209.495c6.341-1.849,28.847-15.146,28.913-15.187c-1.027-0.784-2.703-0.113-2.703-0.113s2.346-1.252,3.076-3.055l0,0 C954.004,191.141,918.369,211.35,924.718,209.495z"/> <path fill="#CAC3BE" d="M958.958,186.834c-2.187-1.469-6.319-1.494-9.446-1.25c0.112,0.049,0.225,0.094,0.334,0.143 c9.168,4.165,1.082,8.469,1.082,8.469s0.357-0.14,0.842-0.219C956.779,191.254,961.148,188.305,958.958,186.834z M953.846,199.498 c-0.546,1.79-1.103,3.609-1.713,5.42c4.859-4.153,9.506-9.09,6.913-9.879c-1.429-0.438-3.136-0.188-4.765,0.323 C954.512,196.202,954.458,197.494,953.846,199.498z M930.521,172.174c-3.384,0.334-8.892,3.956-12.022,6.201 c2.421,0.424,4.736,1.588,6.818,3.847c0,0,0.17-0.008,0.469-0.017C930.031,177.923,933.881,171.841,930.521,172.174z M950.562,231.343c-1.655-0.505-4.754-0.184-7.742,0.344c0.573,0.388,0.854,0.996,0.7,2.065c-0.199,1.377-0.522,3.913-1.71,6.777 C948.086,237.205,953.283,232.172,950.562,231.343z"/> <g> <path fill="#F9F9F9" d="M868.451,214.813c0.48-0.717,1.01-1.466,1.576-2.233h-0.001c-0.752-4.396-9.496,0.07-13.971,11.471 c-4.476,11.399-9.393,18.946-9.393,18.946v-0.001C856.484,230.776,865.259,219.586,868.451,214.813z"/> <path fill="#333333" d="M846.088,242.623c0.003-0.024,4.88-7.486,9.331-18.822l0,0c3.451-8.645,9.08-13.474,12.676-13.574l0,0 c1.209-0.049,2.299,0.758,2.567,2.019l0,0l0.268,0.265l-0.353,0.477c-0.561,0.76-1.085,1.501-1.558,2.207l0,0 c-3.229,4.826-11.994,16.003-21.822,28.231l0,0l-0.096,0.115l-2.394,1.197L846.088,242.623L846.088,242.623z M856.692,224.3 c-1.795,4.572-3.659,8.526-5.254,11.63l0,0c7.561-9.495,13.871-17.648,16.443-21.497l0,0c0.43-0.646,0.901-1.312,1.4-1.996l0,0 c-0.198-0.638-0.495-0.793-1.188-0.839l0,0c-0.027-0.002-0.054-0.002-0.082-0.002l0,0 C865.553,211.596,859.868,216.051,856.692,224.3L856.692,224.3z"/> </g> </g> <g> <g> <path fill="#F9F9F9" d="M1046.352,289.934c-2.553-3.473-4.947-6.586-7.041-9.093c-13.523-16.19-45.926-55.808-52.764-66.027 c-6.838-10.219-23.047-26.306-30.734-30.398c-7.687-4.093-18.475-10.495-26.133-2.193c0,0-15.359-0.658-24.527,3.505 c-9.166,4.165-1.082,8.469-1.082,8.469s-5.171-2.086-2.918,5.303c2.255,7.389,4.682,15.348,10.412,20.684 c5.727,5.336,9.805,9.125,6.206,10.16c-3.6,1.037-6.739,0.314-6.292,3.41c0.446,3.095,1.495,12.033,11.658,17.444 c10.163,5.412,10.058,3.642,24.896,11.541c14.837,7.899,22.764,14.291,31.067,15.695c2.375,0.401,7.02,4.794,12.714,11.747"/> <path fill="#333333" d="M978.986,279.109c-8.584-1.478-16.48-7.905-31.276-15.769l0,0c-14.776-7.869-14.626-6.081-24.896-11.54 l0,0c-10.456-5.551-11.582-14.86-12.014-17.945l0,0c-0.037-0.232-0.053-0.451-0.053-0.655l0,0 c-0.051-1.583,1.202-2.425,2.426-2.653l0,0c1.262-0.307,2.805-0.398,4.406-0.864l0,0c0.818-0.281,0.835-0.437,0.859-0.696l0,0 c0.045-0.464-0.666-1.691-2.015-3.127l0,0c-1.329-1.452-3.213-3.207-5.329-5.178l0,0c-5.907-5.515-8.34-13.6-10.6-20.982l0,0 c-0.417-1.367-0.599-2.447-0.599-3.324l0,0c-0.006-1.121,0.316-1.961,0.888-2.485l0,0c0.3-0.272,0.635-0.438,0.97-0.535l0,0 c-0.825-0.785-1.606-1.88-1.664-3.265l0,0c0.015-1.754,1.385-3.455,4.778-4.988l0,0c7.174-3.245,17.748-3.594,22.455-3.604l0,0 c0.967,0,1.685,0.015,2.068,0.025l0,0c2.789-2.918,6.056-4.041,9.355-4.033l0,0c6.14,0.018,12.436,3.696,17.385,6.32l0,0 c7.902,4.236,24.038,20.278,30.981,30.623l0,0c6.782,10.138,39.214,49.798,52.722,65.967l0,0c2.107,2.524,4.51,5.646,7.066,9.127 l0,0l-1.102,0.811c-2.549-3.465-4.936-6.569-7.015-9.058l0,0c-13.539-16.21-45.915-55.79-52.809-66.085l0,0 c-6.728-10.094-23.015-26.227-30.489-30.178l0,0c-4.96-2.654-11.156-6.174-16.74-6.156l0,0c-3.08,0.008-5.961,1.009-8.563,3.822 l0,0l-0.216,0.234l-0.318-0.014c-0.002,0-0.866-0.038-2.326-0.038l0,0c-4.615-0.007-15.131,0.4-21.89,3.483l0,0 c-3.239,1.479-3.987,2.826-3.973,3.74l0,0c-0.019,0.837,0.646,1.749,1.418,2.424l0,0c0.753,0.672,1.509,1.079,1.512,1.079l0,0 l-0.579,1.238c-0.003,0.006-0.154-0.056-0.379-0.112l0,0c-0.215-0.059-0.501-0.115-0.792-0.111l0,0 c-0.76,0.105-1.278,0.045-1.377,1.768l0,0c0,0.686,0.149,1.645,0.541,2.922l0,0c2.25,7.396,4.673,15.225,10.224,20.382l0,0 c2.117,1.973,4.016,3.738,5.406,5.257l0,0c1.375,1.545,2.328,2.748,2.372,4.051l0,0c0.025,0.99-0.79,1.75-1.851,2.013l0,0 c-1.766,0.505-3.392,0.612-4.453,0.877l0,0c-1.1,0.343-1.333,0.45-1.387,1.324l0,0c0,0.134,0.013,0.28,0.038,0.452l0,0 c0.46,3.101,1.431,11.664,11.304,16.938l0,0c10.058,5.363,9.996,3.612,24.895,11.543l0,0 c14.878,7.938,22.832,14.294,30.858,15.626l0,0c2.876,0.573,7.352,5.001,13.132,11.987l0,0l-1.062,0.869 C985.676,283.692,980.859,279.336,978.986,279.109L978.986,279.109z"/> </g> <path opacity="0.5" d="M929.68,182.222c0,0-0.564-0.024-1.535-0.035c0,0.002,15.966,12.819,18.704,14.278 c2.737,1.456-16.184-15.202-16.185-15.203C930.33,181.559,930.004,181.873,929.68,182.222z M916.268,224.693 c2.309,2.392,3.501,4.175,2.504,5.134c0,0,14.279,5.749,19.73,6.706C943.953,237.491,916.268,224.693,916.268,224.693z M900.994,191.141L900.994,191.141c0.73,1.803,3.076,3.055,3.076,3.055s-1.676-0.671-2.704,0.113 c0.069,0.04,22.575,13.338,28.913,15.187C936.631,211.35,900.994,191.141,900.994,191.141z"/> <path fill="#CAC3BE" d="M903.23,193.977c0.481,0.079,0.84,0.219,0.84,0.219s-8.084-4.304,1.082-8.469 c0.108-0.049,0.224-0.094,0.333-0.143c-3.127-0.244-7.258-0.219-9.443,1.25C893.849,188.305,898.22,191.254,903.23,193.977z M900.716,195.362c-1.629-0.511-3.333-0.761-4.765-0.323c-2.592,0.789,2.058,5.726,6.914,9.879 c-0.609-1.811-1.168-3.63-1.713-5.42C900.542,197.494,900.485,196.202,900.716,195.362z M929.213,182.205 c0.299,0.009,0.467,0.017,0.467,0.017c2.084-2.259,4.401-3.423,6.821-3.847c-3.132-2.245-8.64-5.867-12.021-6.201 C921.117,171.841,924.968,177.923,929.213,182.205z M913.188,240.529c-1.188-2.864-1.512-5.4-1.709-6.777 c-0.155-1.069,0.125-1.678,0.697-2.065c-2.984-0.527-6.085-0.849-7.741-0.344C901.717,232.172,906.914,237.205,913.188,240.529z"/> <g> <path fill="#F9F9F9" d="M986.547,214.813c-0.479-0.717-1.01-1.466-1.575-2.233l0,0c0.753-4.396,9.497,0.07,13.973,11.471 c4.474,11.399,9.393,18.946,9.393,18.946l-0.003-0.001C998.514,230.776,989.742,219.586,986.547,214.813z"/> <path fill="#333333" d="M1008.029,243.607l-0.137-0.07l-0.091-0.115c-9.829-12.228-18.595-23.402-21.824-28.227l0,0l0.569-0.383 l0.57-0.379c2.572,3.848,8.885,12.004,16.445,21.502l0,0c-1.596-3.104-3.461-7.06-5.258-11.635l0,0 c-3.213-8.342-8.988-12.805-11.402-12.703l0,0c-0.691,0.047-0.989,0.198-1.188,0.838l0,0c0.498,0.685,0.969,1.351,1.402,1.998 l0,0l-0.57,0.379l-0.569,0.383c-0.471-0.707-0.995-1.449-1.558-2.211l0,0l-0.352-0.475l0.267-0.265 c0.267-1.26,1.356-2.067,2.567-2.017l0,0c3.594,0.099,9.22,4.928,12.678,13.571l0,0c4.451,11.337,9.318,18.807,9.329,18.823l0,0 l1.388,2.121L1008.029,243.607L1008.029,243.607z"/> </g> </g> <path fill="#333333" d="M505.334,244.34c0,0-32.145,0-43.833-37.016c-11.689-37.016-11.483-61.315-18.183-79.627 s-14.516-26.127-14.516-26.127s-11.351-7.167-19.381-15.198c-8.029-8.03-16.619-9.337-20.914-20.915 c-4.295-11.578-6.91-14.938,2.801-19.98c9.71-5.042,13.632-4.298,33.986-14.754c20.354-10.458,43.322-24.276,59.756-28.384 c16.433-4.109,23.529-1.681,34.36,20.354c0,0-1.868-1.867,31.931-1.867s52.101-2.055,52.101-2.055S614.085-1.022,629.771,4.58 c15.686,5.602,33.426,18.301,46.684,24.089c13.259,5.789,40.522,23.155,47.059,26.704c6.535,3.548,21.102,11.017,11.951,25.583 s-18.673,19.235-28.384,21.477s-18.485,13.071-25.956,18.487s-8.404,10.831-12.139,32.866 c-3.735,22.036-5.043,30.253-15.687,54.342c-10.644,24.087-16.807,37.533-51.912,37.533c0,0-12.323,23.156-31.932,23.156 s-32.119,3.548-44.257-6.723S505.334,247.314,505.334,244.34z"/> <path opacity="0.5" d="M505.801,142.107c-12.016-10.775-21.149,3.536-23.873-17.446c-1.799-13.864,6.287-23.997,11.576-35.898 c5.127-11.537,8.451-20.669,11.42-32.828c3.292-13.482,9.867-24.367,12.886-36.398c-9.963-19.093-17.15-21.101-32.759-17.198 c-16.434,4.107-39.401,17.926-59.756,28.384c-20.354,10.456-24.276,9.712-33.986,14.754c-9.711,5.042-7.096,8.402-2.801,19.98 c4.295,11.577,12.885,12.885,20.914,20.915c8.03,8.03,19.381,15.198,19.381,15.198s7.816,7.815,14.516,26.127 s6.493,42.612,18.183,79.627c4.092,12.956,10.688,21.365,17.536,26.84c1.196-6.915,1.947-14.291,5.21-20.704 c3.195-6.278,6.517-6.747,7.783-13.502c1.532-8.175-4.989-14.603,1.817-21.72C506.685,177.967,514.608,150.007,505.801,142.107z"/> <path opacity="0.5" d="M735.465,80.955c9.15-14.565-5.416-22.034-11.951-25.583c-6.536-3.548-33.8-20.915-47.059-26.704 c-13.258-5.788-30.998-18.487-46.684-24.089c-12.138-4.334-21.251,6.53-24.755,11.67c6.138,3.892,13.815,5.544,19.662,9.392 c-8.637,12.356-23.423,28.285-23.077,44.085c0.311,14.17,24.494,24.161,33.616,39.484c-12.643-2.747-43.447,0.254-48.818,14.884 c-3.485,9.497,3.094,19.298,8.15,26.75c9.531,14.047,18.052,29,17.003,47.223c-1.007,17.501-8.338,40.362,2.285,46.89 c24.347-3.039,30.223-15.923,39.462-36.832c10.644-24.089,11.951-32.306,15.687-54.342c3.734-22.035,4.668-27.45,12.139-32.866 s16.245-16.246,25.956-18.487S726.314,95.521,735.465,80.955z"/> <path fill="#FFFFFF" d="M601.044,244.479c-0.318-1.877,2.863-3.693,3.108-5.408c0.148-1.036,2.029-3.815,3.053-7.791 c0.751-2.924,0.092-11.002-0.038-14.297c-0.595-15.267-1.711-30.502-10.293-43.081c-9.637-14.128-23.322-29.99-26.694-47.493 c-4.262-22.126,13.035-41.828,9.822-64.626c-1.479-0.287-3.193,0.97-4.512,1.59c-0.742-0.073-1.15-3.106-1.869-3.359 c-1.382,1.438-2.683,2.685-4.385,3.842c-0.301-2.965-2.277-7.191-1.829-10.735c0.085,0.07-5.346-3.535-6.461-4.164 c-0.426,3.269-2.839,6.385-3.458,8.73c-1.733-5.466-3.781-11.017-6.892-15.858c-4.451,17.239,0.318,38.161,1.956,55.577 c1.38,14.688,5.565,36.788-5.063,46.053c-3.729,3.251-14.183,3.19-17.996,6.188c-3.52,2.768-7.659,9.35-10.226,13.651 c-8.112,13.604-12.623,27.94-16.573,43.21c-2.903,11.218,1.578,20.204,1.076,31.295c0.904,1.707,1.105,3.194,1.027,4.746 c0.337,0.015,0.536,0.017,0.536,0.017c0,2.95,7.728,7.418,19.865,17.598c12.138,10.181,24.648,6.666,44.257,6.666 C587.169,266.828,598.935,248.1,601.044,244.479z"/> <path opacity="0.18" fill="#AF800B" d="M522.044,111.097c4.27,6.551,11.206,9.454,18.805,8.119 c1.703-4.886,3.268-30.205,1.682-35.653c-4.495-15.438-18.947-5.615-28.218-17.352c-6.782,10.91-9.335,15.382-19.657,22.541 c-6.913,4.795-21.622,12.015-16.124,22.714c16.82-8.743,27.863-12.304,43.513,0.059"/> <path opacity="0.18" fill="#AF800B" d="M650.272,139.974c-3.843-4.896-6.98-10.176-9.474-15.668 c-12.309,8.787-17.81,27.337-37.191,23.177c2.261,8.784,0.426,19.805,5.605,26.855l-0.429,0.428 c2.098,2.799,9.596,5.658,10.348,7.124c6.287,12.272-12.28,26.975-4.212,40.349c10.37,17.191,18.22-12.101,30.953-15.041 c2.97-4.176,10.338-12.93,16.513-22.399c3.003-9.626,4.37-17.856,6.601-31.014c0.006-0.036,0.012-0.071,0.017-0.107 C664.114,148.971,653.863,144.548,650.272,139.974z"/> <path opacity="0.18" fill="#AF800B" d="M579.729,117.506c-25.673-40.989,44.606-47.162,49.084-11.581 c-23.859-11.019-31.215,16.01-50.793,11.581"/> <path opacity="0.18" fill="#AF800B" d="M520.582,22.107c-1.822,9.569-6.943,19.373-11.386,26.187 c9.063,1.536,26.153-11.278,34.562-15.995c6.44-3.613,13.387-2.779,12.988-11.492c-1.758,0.012-3.553,0.019-5.404,0.019 C530.151,20.826,522.982,21.56,520.582,22.107z"/> <path opacity="0.18" fill="#AF800B" d="M604.225,17.456c-0.513,0.815-0.782,1.315-0.782,1.315s-10.713,1.201-30.863,1.766 c1.512,1.149,3.306,2.367,5.496,4.129c2.443,1.965,7.521-0.582,10.133,1.533c2.197,1.778,1.716,5.875,3.398,7.32 c5.184,4.452,4.953,10.805,15.141,12.596C609.41,37.541,608.371,26.341,604.225,17.456z"/> <path d="M541.565,209.491C541.565,209.49,541.564,209.49,541.565,209.491c1.893-0.152,4.945-0.713,4.79-2.789 c-0.226-2.999-3.18-7.949,2.176-8.349c5.356-0.403,9.612,4.665,6.045,8.811c-2.601,3.019-8.791,3.477-12.146,3.517 c0.104,0.297,0.177,0.634,0.207,1.04c0.418,5.568,5.111,7.803,11.418,8.624c6.311,0.821,6.196,7.938,6.196,7.938 c0.877-11.27,16.538-6.411,18.614-13.242c0.564-1.864,1.496-3.127,2.555-4.259c-4.445,0.396-10.207,0.081-11.685-3.863 c-2.489-6.643,1.869-9.248,5.915-8.411c3.637,0.752,0.299,9.485,8.147,9.89c2.198-2.297,4.251-5.339,4.398-12.583 c0.272-13.593-19.805-17.045-27.518-16.467c-7.714,0.577-28.933-0.85-27.664,16.073 C534.022,208.898,539.26,207.719,541.565,209.491z"/> <path d="M588.862,242.982c-2.014,1.332-3.943,0.956-5.308-0.241c-0.585,0.175-1.203,0.369-1.766,0.597 c0.079-0.035-0.387-0.295-0.586-0.253c-0.416,0.288-0.987,0.724-1.35,0.994c-2.127-0.72-3.759-1.669-5.344-2.134 c-0.01-0.002-0.019-0.005-0.025-0.008c-1.77-0.512-3.48-0.418-5.766,1.31c-4.299-2.493-8.781-4.308-10.481-8.544 c-0.292,0.754-0.62,1.498-1.024,2.275c-0.463-0.093-0.532-0.277-1.07-0.36c-0.778,1.318-1.93,2.7-3.019,3.043 c-0.036,0.015,0.102,0.508,0.022,0.597c0.086,0.019-0.955-0.65-0.857-0.579c-0.381,0.849-1.442,1.335-2.029,1.942 c-1.694-1.188-3.766-1.575-4.842,0.174c-0.259,0.092-0.521-0.566-0.886-0.378c-0.61,0.587-1.422,1.002-2.359,1.292l0,0 c-0.321,0.098-0.657,0.183-1.001,0.25c-0.021,0.006-0.048,0.008-0.069,0.012c-0.329,0.063-0.666,0.121-1.013,0.164 c-0.022,0.003-0.047,0.006-0.07,0.007c-0.351,0.044-0.711,0.077-1.08,0.102c-0.016,0.003-0.029,0.003-0.045,0.003 c-0.373,0.025-0.756,0.04-1.142,0.049c-3.396,0.07-7.149-0.412-9.709-0.405c-3.544,0.01-8.938,1.33-11.467-0.775 c7.842,6.711,17.645,13.185,30.859,13.12c12.031-0.059,26.64-1.861,37.697-5.79c4.025-1.432,8.965-4.099,9.764-7.535 C593.069,243.426,590.664,244.601,588.862,242.982z"/> <path d="M480.825,117.378c0,0,7.896-10.43,20.113-10.43s15.048,19.07,15.048,19.07S487.977,138.236,480.825,117.378z"/> <path fill="#664C21" d="M512.318,118.054c0-0.018-0.002-0.034-0.003-0.053c-1.965-4.223-5.508-8.859-11.607-8.859 c-7.585,0-13.343,3.918-16.274,6.448c-0.239,0.793-0.378,1.615-0.378,2.464c0,1.752,0.552,3.402,1.509,4.867 c5.363,5.472,14.143,5.254,20.628,4.084C509.891,125.045,512.318,121.77,512.318,118.054z"/> <ellipse cx="501.226" cy="116.922" rx="6.791" ry="6.014"/> <ellipse opacity="0.3" fill="#FFFFFF" cx="497.762" cy="114.508" rx="3.463" ry="3.115"/> <path d="M631.334,118.731c0,0-7.589-9.272-19.329-9.272c-11.741,0-14.462,16.954-14.462,16.954S624.461,137.274,631.334,118.731z"/> <path fill="#664C21" d="M601.067,119.112c0-0.017,0.003-0.032,0.003-0.048c1.889-3.851,5.294-8.079,11.155-8.079 c7.289,0,12.824,3.573,15.64,5.88c0.231,0.723,0.365,1.473,0.365,2.247c0,1.598-0.531,3.102-1.451,4.438 c-5.154,4.989-13.592,4.792-19.823,3.725C603.399,125.487,601.067,122.5,601.067,119.112z"/> <ellipse cx="611.647" cy="117.772" rx="6.526" ry="5.484"/> <ellipse opacity="0.3" fill="#FFFFFF" cx="614.976" cy="115.571" rx="3.328" ry="2.841"/> <path opacity="0.18" fill="#AF800B" d="M501.748,214.513c0.089-2.117,0.365-4.287,0.946-6.55 c3.95-15.404,8.461-29.869,16.573-43.592c2.566-4.34,6.706-10.98,10.226-13.773c3.071-2.434,10.444-2.87,15.147-4.66 c1.359-4.31-0.994-7.743-10.178-9.741c-15.312-3.332-46.966,7.169-57.712-10.997l-0.428,2.135 c-6.085-8.449-14.763,5.356-19.292,11.052c-4.385-1.435-7.74-0.637-10.291,1.48c3.691,16.724,5.481,38.075,14.761,67.458 c5.563,17.619,15.759,26.842,24.919,31.679c1.818-6.708-2.088-13.474-3.835-19.146c1.836,0.061,4.132,0.102,5.694,0.146 c-0.75-2.768,0.208-5.746-0.356-8.511C495.501,214.893,499.231,215.941,501.748,214.513z"/> <path opacity="0.23" d="M535.39,250.382c-2.725-1.942-5.688-3.297-7.874-5.604c2.66-4,1.456-9.443,1.322-13.068 c2.372-3.109,2.312-6.69-1.429-8.42c0.255,0.012,0.501-0.027,0.739-0.118c-2.939-3.301-6.948-4.88-11.14-6.002 c-0.061-4.438-2.077-12.091,3.274-12.54c0.738-5.125,0.75-10.143,4.008-14.553c2.626-3.559,9.123-2.825,7.772-9.738 c2.317-2.201,2.189-2.643,3.55-5.77c7.783,2.088,4.413-4.587,7.456-8.021c3.631-4.099,7.2-4.088,12.696-4.868 c0.822,5.771,1.129,9.935,3.326,15.296c0.531-0.973,1.998-1.779,2.635-3.09c4.104,2.004,10.544,4.31,10.872-2.835 c8.505,2.386,20.603,21.31,22.411,28.928c2.739,11.53,2.195,22.164-10.192,26.793c1.337,9.383,3.832,17.579-4.898,20.817 c-11.971,4.442-27.578,4.351-40.028,3.03"/> <path fill="#333333" d="M524.756,262.614c-6.053-5.123-11.004-8.803-14.473-11.6l0,0c-3.06-2.529-5.056-4.2-5.53-6.003l0,0 c-4.428-0.201-32.998-2.951-43.905-37.481l0,0c-11.711-37.099-11.529-61.483-18.173-79.6l0,0c-3.331-9.104-6.937-15.587-9.7-19.789 l0,0c-2.523-3.835-4.317-5.74-4.614-6.043l0,0c-1.008-0.642-11.693-7.518-19.424-15.243l0,0 c-7.802-7.865-16.629-9.261-21.073-21.16l0,0c-2.114-5.737-3.874-9.446-3.894-12.623l0,0c-0.014-3.298,2.092-5.678,7.023-8.204l0,0 c9.852-5.104,13.686-4.325,33.987-14.754l0,0c20.338-10.441,43.291-24.276,59.902-28.441l0,0C489.037,0.635,492.626,0,495.873,0 l0,0c9.625-0.017,15.881,5.696,23.79,21.66l0,0c0.079-0.028,0.16-0.056,0.245-0.086l0,0c0.694-0.207,1.86-0.425,3.975-0.635l0,0 c4.227-0.422,12.227-0.797,27.46-0.8l0,0c16.884,0,29.896-0.512,38.684-1.024l0,0c7.403-0.433,11.791-0.863,12.998-0.988l0,0 c1.284-2.209,9.113-15.147,21.155-15.232l0,0c1.857,0,3.804,0.319,5.82,1.041l0,0c15.82,5.656,33.577,18.374,46.728,24.105l0,0 c13.354,5.834,40.623,23.21,47.112,26.729l0,0c4.999,2.75,15.172,7.846,15.244,17.306l0,0c0,2.769-0.906,5.846-3.041,9.244l0,0 c-9.21,14.696-18.983,19.53-28.81,21.778l0,0c-9.355,2.121-18.14,12.851-25.708,18.375l0,0c-7.223,5.236-8.106,10.31-11.865,32.427 l0,0c-3.726,22.016-5.074,30.388-15.733,54.502l0,0c-10.493,23.973-17.169,37.939-52.145,37.942l0,0 c-1.691,2.967-13.62,23.076-32.325,23.156l0,0c-7.98,0-14.797,0.59-20.939,0.593l0,0c-0.029,0-0.058,0-0.087,0l0,0 C539.588,270.093,532.055,268.802,524.756,262.614L524.756,262.614z M506.018,243.655v0.685c-0.105,0.894,1.665,2.881,5.128,5.605 l0,0c3.429,2.77,8.411,6.476,14.494,11.626l0,0c7.035,5.938,14.095,7.143,22.878,7.15l0,0c6.053,0,12.893-0.593,20.939-0.593l0,0 c9.519,0.01,17.354-5.641,22.821-11.367l0,0c5.466-5.715,8.498-11.412,8.503-11.427l0,0l0.193-0.362h0.414 c34.896-0.101,40.526-13.007,51.284-37.125l0,0c10.627-24.063,11.896-32.127,15.637-54.179l0,0 c3.711-21.954,4.693-27.71,12.413-33.305l0,0c7.373-5.309,16.139-16.237,26.203-18.601l0,0c9.597-2.232,18.869-6.741,27.957-21.174 l0,0c2.03-3.233,2.831-6.05,2.831-8.515l0,0c0.072-8.307-9.432-13.37-14.528-16.103l0,0c-6.582-3.575-33.843-20.934-47.005-26.676 l0,0c-13.365-5.844-31.088-18.525-46.64-24.072l0,0c-1.876-0.672-3.661-0.959-5.361-0.959l0,0 c-5.994-0.009-11.035,3.646-14.587,7.381l0,0c-3.547,3.725-5.544,7.44-5.55,7.449l0,0l-0.168,0.316l-0.358,0.039 c-0.021,0.003-18.349,2.059-52.174,2.059l0,0c-13.306,0-21.073,0.291-25.582,0.641l0,0c-4.487,0.324-5.815,0.814-5.853,0.887l0,0 l-0.262-0.375l-0.72,0.516c-0.04-0.041-0.115-0.123-0.167-0.253l0,0c-8.123-16.43-13.854-21.537-22.887-21.554l0,0 c-3.068-0.003-6.557,0.607-10.657,1.633l0,0c-16.254,4.05-39.237,17.854-59.608,28.327l0,0 c-20.405,10.48-24.416,9.775-33.984,14.755l0,0c-4.848,2.545-6.271,4.388-6.286,6.987l0,0c-0.019,2.641,1.662,6.383,3.813,12.145 l0,0c4.146,11.259,12.5,12.478,20.757,20.67l0,0c7.949,7.955,19.238,15.09,19.261,15.102l0,0l0.067,0.042l0.051,0.053 c0.062,0.059,7.938,7.961,14.676,26.377l0,0c6.752,18.509,6.522,42.723,18.192,79.656l0,0 c8.688,27.472,28.639,34.238,38.097,35.971l0,0c3.146,0.57,5.076,0.567,5.082,0.567l0,0v0.685v-0.685H506.018L506.018,243.655z M520.076,22.64h-0.4H520.076L520.076,22.64z"/> <g> <g> <path fill="#F9F9F9" d="M430.752,277.865c-1.638-12.967-3.775-31.821-3.775-41.987c0-16.487,0-28.103,12.74-40.845 c12.739-12.739,20.983-33.724,23.606-46.463c2.623-12.741,2.997-34.475-10.118-38.596c0,0,1.688-13.302-4.495-19.485 c0,0-7.869-8.244-11.991-4.122s-22.483,22.483-22.483,41.594c0,19.111-1.732,26.304-10.492,42.717 c-19.646,36.812-22.482,52.97-22.482,98.685"/> <path fill="#333333" d="M426.289,235.878c-0.014-16.446,0.015-28.432,12.943-41.33l0,0c12.59-12.571,20.834-33.499,23.42-46.116 l0,0c0.837-4.068,1.443-9.079,1.443-14.117l0,0c0.009-10.62-2.729-21.119-11.095-23.688l0,0l-0.549-0.171l0.073-0.568 c-0.004-0.003,0.204-1.612,0.204-3.991l0,0c0.017-4.364-0.745-11.203-4.516-14.933l0,0c-0.005,0-1.223-1.282-2.947-2.564l0,0 c-1.718-1.29-3.949-2.519-5.718-2.502l0,0c-0.891,0.009-1.649,0.263-2.346,0.955l0,0c-4.121,4.081-22.328,22.429-22.283,41.11 l0,0c0.017,19.131-1.783,26.608-10.572,43.039l0,0c-19.607,36.776-22.387,52.648-22.401,98.362l0,0h-1.371 c-0.018-45.717,2.878-62.161,22.563-99.007l0,0c8.73-16.396,10.393-23.307,10.412-42.394l0,0 c0.045-19.54,18.558-37.916,22.684-42.079l0,0c0.949-0.959,2.139-1.363,3.314-1.354l0,0c4.646,0.084,9.581,5.473,9.646,5.478l0,0 c4.234,4.277,4.89,11.396,4.904,15.891l0,0c0,1.627-0.094,2.916-0.157,3.607l0,0c8.962,3.256,11.516,14.271,11.523,24.811l0,0 c0,5.147-0.615,10.236-1.473,14.393l0,0c-2.655,12.859-10.904,33.902-23.792,46.812l0,0 c-12.553,12.583-12.522,23.829-12.539,40.359l0,0c-0.003,10.086,2.133,28.948,3.771,41.899l0,0l-1.36,0.174 C428.434,264.97,426.292,246.124,426.289,235.878L426.289,235.878z"/> </g> <path fill="#333333" d="M464.779,134.88c5.979-18.99-3.734-26.983-3.734-26.983c0-15.059-18.716-24.015-18.716-24.015 l-0.544,0.543c0,0,0.024,0.453,0.072,1.265c3.483,1.286,6.853,4.799,6.853,4.799c6.183,6.183,4.495,19.485,4.495,19.485 C462.243,112.814,464.874,124.019,464.779,134.88z M463.323,148.57c-0.879,4.27-2.404,9.476-4.505,14.976 c0.007-0.008,0.014-0.013,0.021-0.022c11.922-15.965,6.006-28.488,5.94-28.626C464.734,139.792,464.139,144.613,463.323,148.57z"/> <g> <path fill="#F9F9F9" d="M414.235,127.961c0-19.11,18.361-37.472,22.483-41.594c1.024-1.025,2.28-1.283,3.59-1.096 c0-0.001,0-0.001,0-0.001c-3.572-3.573-3.406-4.462-15.527,11.637c-11.99,15.926-10.599,33.791-10.567,34.172 C414.228,130.072,414.235,129.042,414.235,127.961z"/> <path fill="#333333" d="M413.463,128.996c0.003-5.29,0.992-19.506,10.77-32.5l0,0c3.965-5.269,6.616-8.721,8.542-10.889l0,0 c1.934-2.141,3.118-3.133,4.502-3.177l0,0c1.483,0.058,2.293,1.176,3.517,2.354l0,0l0.199,0.202v0.285v0.795l-0.785-0.116 c-0.227-0.036-0.447-0.05-0.662-0.05l0,0c-0.888,0.006-1.645,0.26-2.344,0.95l0,0c-4.118,4.083-22.326,22.43-22.282,41.111l0,0 c0,1.085-0.009,2.118-0.021,3.126l0,0l-1.365,0.071C413.519,131.021,413.463,130.291,413.463,128.996L413.463,128.996z M433.799,86.519c-1.864,2.096-4.514,5.541-8.472,10.8l0,0c-2.717,3.605-4.738,7.316-6.238,10.897l0,0 c5.815-11.03,14.479-19.646,17.144-22.333l0,0c0.712-0.719,1.558-1.125,2.432-1.28l0,0c-0.607-0.556-1.049-0.84-1.388-0.803l0,0 c-0.016-0.001-0.031-0.002-0.048-0.002l0,0C436.69,83.799,435.602,84.461,433.799,86.519L433.799,86.519z"/> </g> <path opacity="0.5" d="M453.413,105.438c0,0-13.618,2.685-17.054,21.497c0,0-0.182,3.257,1.355-1.357 c1.538-4.613,4.921-15.112,16.797-15.112S453.413,105.438,453.413,105.438z"/> <path fill="#CAC3BE" d="M440.339,92.204c0,0-4.885,0.221-4.885-2.171c0-2.391,1.086-9.587,3.98-12.481 c2.895-2.895,9.407-4.522,9.407-1.809c0,2.713,0.543,3.979-2.985,5.697c-3.527,1.719-0.633,7.507-0.633,7.507 S444.5,92.204,440.339,92.204z"/> <path fill="#CAC3BE" d="M450.106,117.168c0,0-5.337-1.447-5.337-5.337c0-3.889,12.392-11.307,17.276-9.858 C466.931,103.42,456.98,113.007,450.106,117.168z"/> </g> <g> <g> <path fill="#F9F9F9" d="M681.677,280.215c1.663-12.933,4.074-33.537,4.074-44.337c0-16.487,0-28.103-12.74-40.845 c-12.739-12.739-20.984-33.724-23.607-46.463c-2.623-12.741-2.997-34.475,10.118-38.596c0,0-1.688-13.302,4.496-19.485 c0,0,7.869-8.244,11.991-4.122s22.482,22.483,22.482,41.594c0,19.111,1.874,26.229,10.492,42.717 c8.619,16.487,16.113,19.109,22.483,64.826c2.376,17.052,3.865,30.557,4.799,40.791"/> <path fill="#333333" d="M680.995,280.129c1.663-12.919,4.073-33.535,4.071-44.252l0,0c-0.018-16.529,0.011-27.775-12.54-40.359 l0,0c-12.89-12.908-21.138-33.953-23.795-46.811l0,0c-0.856-4.158-1.473-9.245-1.473-14.394l0,0 c0.009-10.54,2.562-21.554,11.524-24.811l0,0c-0.064-0.691-0.157-1.978-0.157-3.603l0,0c0.015-4.497,0.666-11.619,4.896-15.883 l0,0c0.075-0.017,5.006-5.406,9.656-5.49l0,0c1.173-0.008,2.363,0.397,3.314,1.354l0,0c4.124,4.163,22.639,22.537,22.684,42.079 l0,0c0.017,19.082,1.819,25.925,10.414,42.398l0,0c8.536,16.324,16.207,19.301,22.554,65.051l0,0 c2.377,17.06,3.867,30.578,4.805,40.821l0,0l-1.366,0.126c-0.932-10.225-2.422-23.719-4.796-40.76l0,0 c-6.395-45.682-13.713-47.951-22.411-64.604l0,0c-8.646-16.501-10.588-23.896-10.571-43.033l0,0 c0.045-18.68-18.161-37.028-22.28-41.11l0,0c-0.702-0.692-1.458-0.946-2.346-0.955l0,0c-1.772-0.017-4.001,1.212-5.72,2.502l0,0 c-1.725,1.283-2.945,2.56-2.959,2.573l0,0c-3.763,3.721-4.521,10.563-4.505,14.928l0,0c0,2.377,0.204,3.983,0.204,3.987l0,0 l0.073,0.567l-0.546,0.172c-8.372,2.57-11.106,13.068-11.099,23.688l0,0c0,5.037,0.608,10.049,1.445,14.119l0,0 c2.589,12.617,10.832,33.546,23.422,46.116l0,0c12.926,12.897,12.957,24.883,12.939,41.328l0,0 c-0.002,10.881-2.416,31.477-4.078,44.425l0,0L680.995,280.129L680.995,280.129z"/> </g> <path fill="#333333" d="M659.521,109.974c0,0-1.688-13.302,4.496-19.485c0,0,3.368-3.514,6.852-4.799 c0.048-0.812,0.072-1.265,0.072-1.265l-0.543-0.543c0,0-18.717,8.956-18.717,24.015c0,0-9.712,7.994-3.733,26.983 C647.854,124.019,650.483,112.814,659.521,109.974z M647.948,134.897c-0.065,0.138-5.981,12.661,5.94,28.626 c0.007,0.01,0.013,0.015,0.02,0.022c-2.1-5.5-3.625-10.706-4.505-14.976C648.589,144.613,647.993,139.792,647.948,134.897z"/> <g> <path fill="#F9F9F9" d="M698.491,127.961c0-19.11-18.36-37.472-22.482-41.594c-1.025-1.025-2.281-1.283-3.591-1.096 c0-0.001,0-0.001,0-0.001c3.573-3.573,3.407-4.462,15.528,11.637c11.99,15.926,10.598,33.791,10.566,34.172 C698.5,130.072,698.491,129.042,698.491,127.961z"/> <path fill="#333333" d="M697.828,131.089c-0.014-1.011-0.022-2.044-0.022-3.129l0,0c0.045-18.679-18.164-37.028-22.282-41.107 l0,0c-0.699-0.693-1.456-0.948-2.343-0.957l0,0c-0.218,0-0.438,0.02-0.663,0.053l0,0l-0.784,0.115v-0.792v-0.287l0.199-0.199 c1.221-1.18,2.032-2.298,3.516-2.356l0,0c1.382,0.044,2.566,1.039,4.5,3.18l0,0c1.928,2.165,4.577,5.618,8.544,10.886l0,0 c9.778,12.994,10.767,27.21,10.767,32.5l0,0c0.003,1.282-0.058,2.061-0.063,2.127l0,0L697.828,131.089L697.828,131.089z M676.492,85.883c2.663,2.687,11.324,11.298,17.141,22.322l0,0c-1.501-3.578-3.521-7.285-6.234-10.887l0,0 c-3.961-5.259-6.607-8.703-8.475-10.8l0,0c-1.859-2.122-2.958-2.762-3.476-2.718l0,0c-0.34-0.037-0.781,0.248-1.388,0.803l0,0 C674.934,84.758,675.781,85.164,676.492,85.883L676.492,85.883z"/> </g> <path opacity="0.5" d="M659.313,105.438c0,0,13.618,2.685,17.055,21.497c0,0,0.182,3.257-1.356-1.357 c-1.537-4.613-4.92-15.112-16.796-15.112S659.313,105.438,659.313,105.438z"/> <path fill="#CAC3BE" d="M672.388,92.204c0,0,4.886,0.221,4.886-2.171c0-2.391-1.087-9.587-3.98-12.481 c-2.895-2.895-9.407-4.522-9.407-1.809c0,2.713-0.544,3.979,2.984,5.697c3.528,1.719,0.634,7.507,0.634,7.507 S668.227,92.204,672.388,92.204z"/> <path fill="#CAC3BE" d="M662.62,117.168c0,0,5.337-1.447,5.337-5.337c0-3.889-12.392-11.307-17.275-9.858 C645.797,103.42,655.746,113.007,662.62,117.168z"/> </g> <path fill="#333333" d="M735.465,80.955c9.15-14.565-5.416-22.034-11.951-25.583c-6.536-3.548-33.8-20.915-47.059-26.704 c-13.258-5.788-30.998-18.487-46.684-24.089c-15.687-5.602-26.329,14.191-26.329,14.191s20.743-15.418,31.547-4.615 c10.804,10.805-3.15,39.616-5.401,53.571s5.853,43.217,25.21,43.217c18.451,0,21.902,2.109,48.245-7.082 c1.328-0.617,2.672-1.116,4.038-1.431c1.842-0.664,3.567-1.147,5.191-1.483C720.186,98.198,727.951,92.915,735.465,80.955z"/> <path fill="#515151" d="M603.442,18.771c0,0,20.743-15.418,31.547-4.615c10.804,10.805-3.15,39.616-5.401,53.571 c-1.354,8.401,1.049,22.344,7.396,32.117c-6.376-20.518,3.299-44.884,7.065-69.538c1.345-8.796,0.81-15.053-0.428-19.478 c-4.683-2.443-9.352-4.643-13.85-6.25C614.085-1.022,603.442,18.771,603.442,18.771z"/> <path fill="#515151" d="M735.465,80.955c6.462-10.286,1.096-17.028-4.916-21.355c-9.62,3.678-6.95,15.309-12.878,28.577 c-7.147,15.997-35.73,21.795-36.078,21.865c5.344-1,11.884-2.842,21.45-6.18c1.328-0.617,2.672-1.116,4.038-1.431 c1.842-0.664,3.567-1.147,5.191-1.483C720.186,98.198,727.951,92.915,735.465,80.955z"/> <path fill="#515151" d="M461.672,108.693c16.656-5.853,29.261-20.709,22.959-43.667c-5.788-21.086-12.688-55.819,14.118-64.141 c-3.863-0.541-8.27,0.096-13.698,1.453c-16.434,4.107-39.401,17.926-59.756,28.384c-20.354,10.456-24.276,9.712-33.986,14.754 c-9.711,5.042-7.096,8.402-2.801,19.98c4.295,11.577,12.885,12.885,20.914,20.915c8.03,8.03,19.381,15.198,19.381,15.198 S445.016,114.546,461.672,108.693z"/> <path fill="#333333" d="M485.051,2.339c-14.783,3.695-34.849,15.242-53.549,25.138c0.004-0.001,0.007-0.002,0.01-0.004 c-2.086,1.909-6.005,3.993-12.262,6.266l-0.021,0.009c0.013-0.007,0.027-0.014,0.04-0.021c-3.279,1.585-6.045,2.824-8.446,3.835 c-35.347,20.178,18.001,58.704,18.665,59.182c13.678,6.281,27.634,8.68,37.184,1.708c21.572-15.752,4.109-31.161,6.849-65.746 c2.645-33.387,23.688-31.965,25.144-31.827C494.821,0.357,490.44,0.991,485.051,2.339z"/> </g> </svg>